<svg width="1024" height="200" viewBox="0 0 1024 200" fill="none" xmlns="http://www.w3.org/2000/svg">
<rect width="1024" height="200" fill="white"/>
<path d="M245.406 146.689H240.361L240.334 144.57H244.914C245.671 144.57 246.331 144.443 246.896 144.188C247.462 143.932 247.899 143.568 248.209 143.094C248.528 142.611 248.688 142.036 248.688 141.371C248.688 140.642 248.546 140.049 248.264 139.594C247.99 139.129 247.566 138.792 246.992 138.582C246.427 138.363 245.707 138.254 244.832 138.254H240.949V156H238.311V136.094H244.832C245.853 136.094 246.764 136.199 247.566 136.408C248.368 136.609 249.048 136.928 249.604 137.365C250.169 137.794 250.597 138.34 250.889 139.006C251.18 139.671 251.326 140.469 251.326 141.398C251.326 142.219 251.117 142.962 250.697 143.627C250.278 144.283 249.695 144.821 248.947 145.24C248.209 145.66 247.343 145.928 246.35 146.047L245.406 146.689ZM245.283 156H239.322L240.812 153.854H245.283C246.122 153.854 246.833 153.708 247.416 153.416C248.008 153.124 248.46 152.714 248.77 152.186C249.079 151.648 249.234 151.014 249.234 150.285C249.234 149.547 249.102 148.909 248.838 148.371C248.574 147.833 248.159 147.419 247.594 147.127C247.029 146.835 246.299 146.689 245.406 146.689H241.646L241.674 144.57H246.814L247.375 145.336C248.332 145.418 249.143 145.691 249.809 146.156C250.474 146.612 250.98 147.195 251.326 147.906C251.682 148.617 251.859 149.401 251.859 150.258C251.859 151.497 251.586 152.546 251.039 153.402C250.501 154.25 249.74 154.897 248.756 155.344C247.771 155.781 246.614 156 245.283 156ZM264.424 152.582V141.207H266.967V156H264.547L264.424 152.582ZM264.902 149.465L265.955 149.438C265.955 150.422 265.85 151.333 265.641 152.172C265.44 153.001 265.112 153.721 264.656 154.332C264.201 154.943 263.604 155.421 262.865 155.768C262.127 156.105 261.229 156.273 260.172 156.273C259.452 156.273 258.791 156.169 258.189 155.959C257.597 155.749 257.087 155.426 256.658 154.988C256.23 154.551 255.897 153.981 255.66 153.279C255.432 152.577 255.318 151.734 255.318 150.75V141.207H257.848V150.777C257.848 151.443 257.921 151.994 258.066 152.432C258.221 152.86 258.426 153.202 258.682 153.457C258.946 153.703 259.238 153.876 259.557 153.977C259.885 154.077 260.222 154.127 260.568 154.127C261.644 154.127 262.496 153.922 263.125 153.512C263.754 153.092 264.205 152.532 264.479 151.83C264.761 151.119 264.902 150.331 264.902 149.465ZM273.57 141.207V156H271.027V141.207H273.57ZM270.836 137.283C270.836 136.873 270.959 136.527 271.205 136.244C271.46 135.962 271.834 135.82 272.326 135.82C272.809 135.82 273.178 135.962 273.434 136.244C273.698 136.527 273.83 136.873 273.83 137.283C273.83 137.675 273.698 138.012 273.434 138.295C273.178 138.568 272.809 138.705 272.326 138.705C271.834 138.705 271.46 138.568 271.205 138.295C270.959 138.012 270.836 137.675 270.836 137.283ZM280.379 135V156H277.836V135H280.379ZM293.764 153.129V135H296.307V156H293.982L293.764 153.129ZM283.811 148.768V148.48C283.811 147.35 283.947 146.325 284.221 145.404C284.503 144.475 284.9 143.677 285.41 143.012C285.93 142.346 286.545 141.836 287.256 141.48C287.976 141.116 288.778 140.934 289.662 140.934C290.592 140.934 291.403 141.098 292.096 141.426C292.798 141.745 293.39 142.214 293.873 142.834C294.365 143.445 294.753 144.183 295.035 145.049C295.318 145.915 295.514 146.895 295.623 147.988V149.246C295.523 150.331 295.327 151.306 295.035 152.172C294.753 153.038 294.365 153.776 293.873 154.387C293.39 154.997 292.798 155.467 292.096 155.795C291.394 156.114 290.574 156.273 289.635 156.273C288.769 156.273 287.976 156.087 287.256 155.713C286.545 155.339 285.93 154.815 285.41 154.141C284.9 153.466 284.503 152.673 284.221 151.762C283.947 150.841 283.811 149.843 283.811 148.768ZM286.354 148.48V148.768C286.354 149.506 286.426 150.199 286.572 150.846C286.727 151.493 286.964 152.062 287.283 152.555C287.602 153.047 288.008 153.434 288.5 153.717C288.992 153.99 289.58 154.127 290.264 154.127C291.102 154.127 291.79 153.949 292.328 153.594C292.875 153.238 293.312 152.769 293.641 152.186C293.969 151.602 294.224 150.969 294.406 150.285V146.99C294.297 146.489 294.137 146.006 293.928 145.541C293.727 145.067 293.463 144.648 293.135 144.283C292.816 143.91 292.419 143.613 291.945 143.395C291.48 143.176 290.929 143.066 290.291 143.066C289.598 143.066 289.001 143.212 288.5 143.504C288.008 143.786 287.602 144.178 287.283 144.68C286.964 145.172 286.727 145.746 286.572 146.402C286.426 147.049 286.354 147.742 286.354 148.48ZM315.912 153.471V145.855C315.912 145.272 315.794 144.766 315.557 144.338C315.329 143.9 314.982 143.563 314.518 143.326C314.053 143.089 313.479 142.971 312.795 142.971C312.157 142.971 311.596 143.08 311.113 143.299C310.639 143.518 310.266 143.805 309.992 144.16C309.728 144.516 309.596 144.898 309.596 145.309H307.066C307.066 144.78 307.203 144.256 307.477 143.736C307.75 143.217 308.142 142.747 308.652 142.328C309.172 141.9 309.792 141.562 310.512 141.316C311.241 141.061 312.052 140.934 312.945 140.934C314.021 140.934 314.969 141.116 315.789 141.48C316.618 141.845 317.266 142.396 317.73 143.135C318.204 143.864 318.441 144.78 318.441 145.883V152.773C318.441 153.266 318.482 153.79 318.564 154.346C318.656 154.902 318.788 155.38 318.961 155.781V156H316.322C316.195 155.708 316.094 155.321 316.021 154.838C315.949 154.346 315.912 153.89 315.912 153.471ZM316.35 147.031L316.377 148.809H313.82C313.1 148.809 312.458 148.868 311.893 148.986C311.327 149.096 310.854 149.264 310.471 149.492C310.088 149.72 309.796 150.007 309.596 150.354C309.395 150.691 309.295 151.087 309.295 151.543C309.295 152.008 309.4 152.432 309.609 152.814C309.819 153.197 310.133 153.503 310.553 153.73C310.981 153.949 311.505 154.059 312.125 154.059C312.9 154.059 313.583 153.895 314.176 153.566C314.768 153.238 315.238 152.837 315.584 152.363C315.939 151.889 316.131 151.429 316.158 150.982L317.238 152.199C317.174 152.582 317.001 153.006 316.719 153.471C316.436 153.936 316.058 154.382 315.584 154.811C315.119 155.23 314.563 155.581 313.916 155.863C313.278 156.137 312.558 156.273 311.756 156.273C310.753 156.273 309.874 156.077 309.117 155.686C308.37 155.294 307.786 154.77 307.367 154.113C306.957 153.448 306.752 152.705 306.752 151.885C306.752 151.092 306.907 150.395 307.217 149.793C307.527 149.182 307.973 148.676 308.557 148.275C309.14 147.865 309.842 147.555 310.662 147.346C311.482 147.136 312.398 147.031 313.41 147.031H316.35ZM324.949 144.051V161.688H322.406V141.207H324.73L324.949 144.051ZM334.916 148.48V148.768C334.916 149.843 334.788 150.841 334.533 151.762C334.278 152.673 333.904 153.466 333.412 154.141C332.929 154.815 332.332 155.339 331.621 155.713C330.91 156.087 330.094 156.273 329.174 156.273C328.235 156.273 327.406 156.118 326.686 155.809C325.965 155.499 325.355 155.048 324.854 154.455C324.352 153.863 323.951 153.152 323.65 152.322C323.359 151.493 323.158 150.559 323.049 149.52V147.988C323.158 146.895 323.363 145.915 323.664 145.049C323.965 144.183 324.361 143.445 324.854 142.834C325.355 142.214 325.961 141.745 326.672 141.426C327.383 141.098 328.203 140.934 329.133 140.934C330.062 140.934 330.887 141.116 331.607 141.48C332.327 141.836 332.934 142.346 333.426 143.012C333.918 143.677 334.287 144.475 334.533 145.404C334.788 146.325 334.916 147.35 334.916 148.48ZM332.373 148.768V148.48C332.373 147.742 332.296 147.049 332.141 146.402C331.986 145.746 331.744 145.172 331.416 144.68C331.097 144.178 330.687 143.786 330.186 143.504C329.684 143.212 329.087 143.066 328.395 143.066C327.757 143.066 327.201 143.176 326.727 143.395C326.262 143.613 325.865 143.91 325.537 144.283C325.209 144.648 324.94 145.067 324.73 145.541C324.53 146.006 324.38 146.489 324.279 146.99V150.531C324.462 151.169 324.717 151.771 325.045 152.336C325.373 152.892 325.811 153.343 326.357 153.689C326.904 154.027 327.592 154.195 328.422 154.195C329.105 154.195 329.693 154.054 330.186 153.771C330.687 153.48 331.097 153.083 331.416 152.582C331.744 152.081 331.986 151.507 332.141 150.859C332.296 150.203 332.373 149.506 332.373 148.768ZM340.672 144.051V161.688H338.129V141.207H340.453L340.672 144.051ZM350.639 148.48V148.768C350.639 149.843 350.511 150.841 350.256 151.762C350.001 152.673 349.627 153.466 349.135 154.141C348.652 154.815 348.055 155.339 347.344 155.713C346.633 156.087 345.817 156.273 344.896 156.273C343.958 156.273 343.128 156.118 342.408 155.809C341.688 155.499 341.077 155.048 340.576 154.455C340.075 153.863 339.674 153.152 339.373 152.322C339.081 151.493 338.881 150.559 338.771 149.52V147.988C338.881 146.895 339.086 145.915 339.387 145.049C339.688 144.183 340.084 143.445 340.576 142.834C341.077 142.214 341.684 141.745 342.395 141.426C343.105 141.098 343.926 140.934 344.855 140.934C345.785 140.934 346.61 141.116 347.33 141.48C348.05 141.836 348.656 142.346 349.148 143.012C349.641 143.677 350.01 144.475 350.256 145.404C350.511 146.325 350.639 147.35 350.639 148.48ZM348.096 148.768V148.48C348.096 147.742 348.018 147.049 347.863 146.402C347.708 145.746 347.467 145.172 347.139 144.68C346.82 144.178 346.41 143.786 345.908 143.504C345.407 143.212 344.81 143.066 344.117 143.066C343.479 143.066 342.923 143.176 342.449 143.395C341.984 143.613 341.588 143.91 341.26 144.283C340.932 144.648 340.663 145.067 340.453 145.541C340.253 146.006 340.102 146.489 340.002 146.99V150.531C340.184 151.169 340.439 151.771 340.768 152.336C341.096 152.892 341.533 153.343 342.08 153.689C342.627 154.027 343.315 154.195 344.145 154.195C344.828 154.195 345.416 154.054 345.908 153.771C346.41 153.48 346.82 153.083 347.139 152.582C347.467 152.081 347.708 151.507 347.863 150.859C348.018 150.203 348.096 149.506 348.096 148.768ZM356.613 135V156H354.07V135H356.613ZM363.422 141.207V156H360.879V141.207H363.422ZM360.688 137.283C360.688 136.873 360.811 136.527 361.057 136.244C361.312 135.962 361.686 135.82 362.178 135.82C362.661 135.82 363.03 135.962 363.285 136.244C363.549 136.527 363.682 136.873 363.682 137.283C363.682 137.675 363.549 138.012 363.285 138.295C363.03 138.568 362.661 138.705 362.178 138.705C361.686 138.705 361.312 138.568 361.057 138.295C360.811 138.012 360.688 137.675 360.688 137.283ZM373.402 154.195C374.004 154.195 374.56 154.072 375.07 153.826C375.581 153.58 376 153.243 376.328 152.814C376.656 152.377 376.843 151.88 376.889 151.324H379.295C379.249 152.199 378.953 153.015 378.406 153.771C377.868 154.519 377.162 155.125 376.287 155.59C375.412 156.046 374.451 156.273 373.402 156.273C372.29 156.273 371.32 156.077 370.49 155.686C369.67 155.294 368.986 154.756 368.439 154.072C367.902 153.389 367.496 152.605 367.223 151.721C366.958 150.827 366.826 149.884 366.826 148.891V148.316C366.826 147.323 366.958 146.384 367.223 145.5C367.496 144.607 367.902 143.818 368.439 143.135C368.986 142.451 369.67 141.913 370.49 141.521C371.32 141.13 372.29 140.934 373.402 140.934C374.56 140.934 375.572 141.171 376.438 141.645C377.303 142.109 377.982 142.747 378.475 143.559C378.976 144.361 379.249 145.272 379.295 146.293H376.889C376.843 145.682 376.67 145.131 376.369 144.639C376.077 144.146 375.676 143.755 375.166 143.463C374.665 143.162 374.077 143.012 373.402 143.012C372.628 143.012 371.976 143.167 371.447 143.477C370.928 143.777 370.513 144.188 370.203 144.707C369.902 145.217 369.684 145.787 369.547 146.416C369.419 147.036 369.355 147.669 369.355 148.316V148.891C369.355 149.538 369.419 150.176 369.547 150.805C369.674 151.434 369.889 152.003 370.189 152.514C370.499 153.024 370.914 153.434 371.434 153.744C371.962 154.045 372.618 154.195 373.402 154.195ZM390.861 153.471V145.855C390.861 145.272 390.743 144.766 390.506 144.338C390.278 143.9 389.932 143.563 389.467 143.326C389.002 143.089 388.428 142.971 387.744 142.971C387.106 142.971 386.546 143.08 386.062 143.299C385.589 143.518 385.215 143.805 384.941 144.16C384.677 144.516 384.545 144.898 384.545 145.309H382.016C382.016 144.78 382.152 144.256 382.426 143.736C382.699 143.217 383.091 142.747 383.602 142.328C384.121 141.9 384.741 141.562 385.461 141.316C386.19 141.061 387.001 140.934 387.895 140.934C388.97 140.934 389.918 141.116 390.738 141.48C391.568 141.845 392.215 142.396 392.68 143.135C393.154 143.864 393.391 144.78 393.391 145.883V152.773C393.391 153.266 393.432 153.79 393.514 154.346C393.605 154.902 393.737 155.38 393.91 155.781V156H391.271C391.144 155.708 391.044 155.321 390.971 154.838C390.898 154.346 390.861 153.89 390.861 153.471ZM391.299 147.031L391.326 148.809H388.77C388.049 148.809 387.407 148.868 386.842 148.986C386.277 149.096 385.803 149.264 385.42 149.492C385.037 149.72 384.745 150.007 384.545 150.354C384.344 150.691 384.244 151.087 384.244 151.543C384.244 152.008 384.349 152.432 384.559 152.814C384.768 153.197 385.083 153.503 385.502 153.73C385.93 153.949 386.454 154.059 387.074 154.059C387.849 154.059 388.533 153.895 389.125 153.566C389.717 153.238 390.187 152.837 390.533 152.363C390.889 151.889 391.08 151.429 391.107 150.982L392.188 152.199C392.124 152.582 391.951 153.006 391.668 153.471C391.385 153.936 391.007 154.382 390.533 154.811C390.068 155.23 389.512 155.581 388.865 155.863C388.227 156.137 387.507 156.273 386.705 156.273C385.702 156.273 384.823 156.077 384.066 155.686C383.319 155.294 382.736 154.77 382.316 154.113C381.906 153.448 381.701 152.705 381.701 151.885C381.701 151.092 381.856 150.395 382.166 149.793C382.476 149.182 382.923 148.676 383.506 148.275C384.089 147.865 384.791 147.555 385.611 147.346C386.432 147.136 387.348 147.031 388.359 147.031H391.299ZM403.562 141.207V143.148H395.564V141.207H403.562ZM398.271 137.611H400.801V152.336C400.801 152.837 400.878 153.215 401.033 153.471C401.188 153.726 401.389 153.895 401.635 153.977C401.881 154.059 402.145 154.1 402.428 154.1C402.637 154.1 402.856 154.081 403.084 154.045C403.321 153.999 403.499 153.963 403.617 153.936L403.631 156C403.43 156.064 403.166 156.123 402.838 156.178C402.519 156.242 402.132 156.273 401.676 156.273C401.056 156.273 400.486 156.15 399.967 155.904C399.447 155.658 399.033 155.248 398.723 154.674C398.422 154.09 398.271 153.307 398.271 152.322V137.611ZM409.277 141.207V156H406.734V141.207H409.277ZM406.543 137.283C406.543 136.873 406.666 136.527 406.912 136.244C407.167 135.962 407.541 135.82 408.033 135.82C408.516 135.82 408.885 135.962 409.141 136.244C409.405 136.527 409.537 136.873 409.537 137.283C409.537 137.675 409.405 138.012 409.141 138.295C408.885 138.568 408.516 138.705 408.033 138.705C407.541 138.705 407.167 138.568 406.912 138.295C406.666 138.012 406.543 137.675 406.543 137.283ZM412.668 148.768V148.453C412.668 147.387 412.823 146.398 413.133 145.486C413.443 144.566 413.889 143.768 414.473 143.094C415.056 142.41 415.762 141.882 416.592 141.508C417.421 141.125 418.351 140.934 419.381 140.934C420.42 140.934 421.354 141.125 422.184 141.508C423.022 141.882 423.733 142.41 424.316 143.094C424.909 143.768 425.36 144.566 425.67 145.486C425.98 146.398 426.135 147.387 426.135 148.453V148.768C426.135 149.834 425.98 150.823 425.67 151.734C425.36 152.646 424.909 153.443 424.316 154.127C423.733 154.801 423.027 155.33 422.197 155.713C421.377 156.087 420.447 156.273 419.408 156.273C418.369 156.273 417.435 156.087 416.605 155.713C415.776 155.33 415.065 154.801 414.473 154.127C413.889 153.443 413.443 152.646 413.133 151.734C412.823 150.823 412.668 149.834 412.668 148.768ZM415.197 148.453V148.768C415.197 149.506 415.284 150.203 415.457 150.859C415.63 151.507 415.89 152.081 416.236 152.582C416.592 153.083 417.034 153.48 417.562 153.771C418.091 154.054 418.706 154.195 419.408 154.195C420.101 154.195 420.707 154.054 421.227 153.771C421.755 153.48 422.193 153.083 422.539 152.582C422.885 152.081 423.145 151.507 423.318 150.859C423.501 150.203 423.592 149.506 423.592 148.768V148.453C423.592 147.724 423.501 147.036 423.318 146.389C423.145 145.732 422.881 145.154 422.525 144.652C422.179 144.142 421.742 143.741 421.213 143.449C420.693 143.158 420.083 143.012 419.381 143.012C418.688 143.012 418.077 143.158 417.549 143.449C417.029 143.741 416.592 144.142 416.236 144.652C415.89 145.154 415.63 145.732 415.457 146.389C415.284 147.036 415.197 147.724 415.197 148.453ZM431.836 144.365V156H429.307V141.207H431.699L431.836 144.365ZM431.234 148.043L430.182 148.002C430.191 146.99 430.341 146.056 430.633 145.199C430.924 144.333 431.335 143.581 431.863 142.943C432.392 142.305 433.021 141.813 433.75 141.467C434.488 141.111 435.304 140.934 436.197 140.934C436.926 140.934 437.583 141.034 438.166 141.234C438.749 141.426 439.246 141.736 439.656 142.164C440.076 142.592 440.395 143.148 440.613 143.832C440.832 144.507 440.941 145.331 440.941 146.307V156H438.398V146.279C438.398 145.505 438.285 144.885 438.057 144.42C437.829 143.946 437.496 143.604 437.059 143.395C436.621 143.176 436.083 143.066 435.445 143.066C434.816 143.066 434.242 143.199 433.723 143.463C433.212 143.727 432.77 144.092 432.396 144.557C432.032 145.021 431.745 145.555 431.535 146.156C431.335 146.749 431.234 147.378 431.234 148.043ZM460.451 153.471V145.855C460.451 145.272 460.333 144.766 460.096 144.338C459.868 143.9 459.521 143.563 459.057 143.326C458.592 143.089 458.018 142.971 457.334 142.971C456.696 142.971 456.135 143.08 455.652 143.299C455.178 143.518 454.805 143.805 454.531 144.16C454.267 144.516 454.135 144.898 454.135 145.309H451.605C451.605 144.78 451.742 144.256 452.016 143.736C452.289 143.217 452.681 142.747 453.191 142.328C453.711 141.9 454.331 141.562 455.051 141.316C455.78 141.061 456.591 140.934 457.484 140.934C458.56 140.934 459.508 141.116 460.328 141.48C461.158 141.845 461.805 142.396 462.27 143.135C462.743 143.864 462.98 144.78 462.98 145.883V152.773C462.98 153.266 463.021 153.79 463.104 154.346C463.195 154.902 463.327 155.38 463.5 155.781V156H460.861C460.734 155.708 460.633 155.321 460.561 154.838C460.488 154.346 460.451 153.89 460.451 153.471ZM460.889 147.031L460.916 148.809H458.359C457.639 148.809 456.997 148.868 456.432 148.986C455.867 149.096 455.393 149.264 455.01 149.492C454.627 149.72 454.335 150.007 454.135 150.354C453.934 150.691 453.834 151.087 453.834 151.543C453.834 152.008 453.939 152.432 454.148 152.814C454.358 153.197 454.673 153.503 455.092 153.73C455.52 153.949 456.044 154.059 456.664 154.059C457.439 154.059 458.122 153.895 458.715 153.566C459.307 153.238 459.777 152.837 460.123 152.363C460.479 151.889 460.67 151.429 460.697 150.982L461.777 152.199C461.714 152.582 461.54 153.006 461.258 153.471C460.975 153.936 460.597 154.382 460.123 154.811C459.658 155.23 459.102 155.581 458.455 155.863C457.817 156.137 457.097 156.273 456.295 156.273C455.292 156.273 454.413 156.077 453.656 155.686C452.909 155.294 452.326 154.77 451.906 154.113C451.496 153.448 451.291 152.705 451.291 151.885C451.291 151.092 451.446 150.395 451.756 149.793C452.066 149.182 452.512 148.676 453.096 148.275C453.679 147.865 454.381 147.555 455.201 147.346C456.021 147.136 456.938 147.031 457.949 147.031H460.889ZM473.152 141.207V143.148H465.154V141.207H473.152ZM467.861 137.611H470.391V152.336C470.391 152.837 470.468 153.215 470.623 153.471C470.778 153.726 470.979 153.895 471.225 153.977C471.471 154.059 471.735 154.1 472.018 154.1C472.227 154.1 472.446 154.081 472.674 154.045C472.911 153.999 473.089 153.963 473.207 153.936L473.221 156C473.02 156.064 472.756 156.123 472.428 156.178C472.109 156.242 471.721 156.273 471.266 156.273C470.646 156.273 470.076 156.15 469.557 155.904C469.037 155.658 468.622 155.248 468.312 154.674C468.012 154.09 467.861 153.307 467.861 152.322V137.611ZM475.176 148.768V148.453C475.176 147.387 475.331 146.398 475.641 145.486C475.951 144.566 476.397 143.768 476.98 143.094C477.564 142.41 478.27 141.882 479.1 141.508C479.929 141.125 480.859 140.934 481.889 140.934C482.928 140.934 483.862 141.125 484.691 141.508C485.53 141.882 486.241 142.41 486.824 143.094C487.417 143.768 487.868 144.566 488.178 145.486C488.488 146.398 488.643 147.387 488.643 148.453V148.768C488.643 149.834 488.488 150.823 488.178 151.734C487.868 152.646 487.417 153.443 486.824 154.127C486.241 154.801 485.535 155.33 484.705 155.713C483.885 156.087 482.955 156.273 481.916 156.273C480.877 156.273 479.943 156.087 479.113 155.713C478.284 155.33 477.573 154.801 476.98 154.127C476.397 153.443 475.951 152.646 475.641 151.734C475.331 150.823 475.176 149.834 475.176 148.768ZM477.705 148.453V148.768C477.705 149.506 477.792 150.203 477.965 150.859C478.138 151.507 478.398 152.081 478.744 152.582C479.1 153.083 479.542 153.48 480.07 153.771C480.599 154.054 481.214 154.195 481.916 154.195C482.609 154.195 483.215 154.054 483.734 153.771C484.263 153.48 484.701 153.083 485.047 152.582C485.393 152.081 485.653 151.507 485.826 150.859C486.008 150.203 486.1 149.506 486.1 148.768V148.453C486.1 147.724 486.008 147.036 485.826 146.389C485.653 145.732 485.389 145.154 485.033 144.652C484.687 144.142 484.249 143.741 483.721 143.449C483.201 143.158 482.59 143.012 481.889 143.012C481.196 143.012 480.585 143.158 480.057 143.449C479.537 143.741 479.1 144.142 478.744 144.652C478.398 145.154 478.138 145.732 477.965 146.389C477.792 147.036 477.705 147.724 477.705 148.453ZM494.33 144.146V156H491.787V141.207H494.193L494.33 144.146ZM493.811 148.043L492.635 148.002C492.644 146.99 492.776 146.056 493.031 145.199C493.286 144.333 493.665 143.581 494.166 142.943C494.667 142.305 495.292 141.813 496.039 141.467C496.786 141.111 497.652 140.934 498.637 140.934C499.329 140.934 499.967 141.034 500.551 141.234C501.134 141.426 501.64 141.731 502.068 142.15C502.497 142.57 502.829 143.107 503.066 143.764C503.303 144.42 503.422 145.213 503.422 146.143V156H500.893V146.266C500.893 145.491 500.76 144.871 500.496 144.406C500.241 143.941 499.876 143.604 499.402 143.395C498.928 143.176 498.372 143.066 497.734 143.066C496.987 143.066 496.363 143.199 495.861 143.463C495.36 143.727 494.959 144.092 494.658 144.557C494.357 145.021 494.139 145.555 494.002 146.156C493.874 146.749 493.811 147.378 493.811 148.043ZM503.395 146.648L501.699 147.168C501.708 146.357 501.84 145.577 502.096 144.83C502.36 144.083 502.738 143.417 503.23 142.834C503.732 142.251 504.347 141.79 505.076 141.453C505.805 141.107 506.639 140.934 507.578 140.934C508.371 140.934 509.073 141.038 509.684 141.248C510.303 141.458 510.823 141.781 511.242 142.219C511.671 142.647 511.994 143.199 512.213 143.873C512.432 144.548 512.541 145.35 512.541 146.279V156H509.998V146.252C509.998 145.423 509.866 144.78 509.602 144.324C509.346 143.859 508.982 143.536 508.508 143.354C508.043 143.162 507.487 143.066 506.84 143.066C506.284 143.066 505.792 143.162 505.363 143.354C504.935 143.545 504.575 143.809 504.283 144.146C503.992 144.475 503.768 144.853 503.613 145.281C503.467 145.71 503.395 146.165 503.395 146.648ZM519.117 141.207V156H516.574V141.207H519.117ZM516.383 137.283C516.383 136.873 516.506 136.527 516.752 136.244C517.007 135.962 517.381 135.82 517.873 135.82C518.356 135.82 518.725 135.962 518.98 136.244C519.245 136.527 519.377 136.873 519.377 137.283C519.377 137.675 519.245 138.012 518.98 138.295C518.725 138.568 518.356 138.705 517.873 138.705C517.381 138.705 517.007 138.568 516.752 138.295C516.506 138.012 516.383 137.675 516.383 137.283ZM529.098 154.195C529.699 154.195 530.255 154.072 530.766 153.826C531.276 153.58 531.695 153.243 532.023 152.814C532.352 152.377 532.538 151.88 532.584 151.324H534.99C534.945 152.199 534.648 153.015 534.102 153.771C533.564 154.519 532.857 155.125 531.982 155.59C531.107 156.046 530.146 156.273 529.098 156.273C527.986 156.273 527.015 156.077 526.186 155.686C525.365 155.294 524.682 154.756 524.135 154.072C523.597 153.389 523.191 152.605 522.918 151.721C522.654 150.827 522.521 149.884 522.521 148.891V148.316C522.521 147.323 522.654 146.384 522.918 145.5C523.191 144.607 523.597 143.818 524.135 143.135C524.682 142.451 525.365 141.913 526.186 141.521C527.015 141.13 527.986 140.934 529.098 140.934C530.255 140.934 531.267 141.171 532.133 141.645C532.999 142.109 533.678 142.747 534.17 143.559C534.671 144.361 534.945 145.272 534.99 146.293H532.584C532.538 145.682 532.365 145.131 532.064 144.639C531.773 144.146 531.372 143.755 530.861 143.463C530.36 143.162 529.772 143.012 529.098 143.012C528.323 143.012 527.671 143.167 527.143 143.477C526.623 143.777 526.208 144.188 525.898 144.707C525.598 145.217 525.379 145.787 525.242 146.416C525.115 147.036 525.051 147.669 525.051 148.316V148.891C525.051 149.538 525.115 150.176 525.242 150.805C525.37 151.434 525.584 152.003 525.885 152.514C526.195 153.024 526.609 153.434 527.129 153.744C527.658 154.045 528.314 154.195 529.098 154.195ZM546.557 153.471V145.855C546.557 145.272 546.438 144.766 546.201 144.338C545.973 143.9 545.627 143.563 545.162 143.326C544.697 143.089 544.123 142.971 543.439 142.971C542.801 142.971 542.241 143.08 541.758 143.299C541.284 143.518 540.91 143.805 540.637 144.16C540.372 144.516 540.24 144.898 540.24 145.309H537.711C537.711 144.78 537.848 144.256 538.121 143.736C538.395 143.217 538.786 142.747 539.297 142.328C539.816 141.9 540.436 141.562 541.156 141.316C541.885 141.061 542.697 140.934 543.59 140.934C544.665 140.934 545.613 141.116 546.434 141.48C547.263 141.845 547.91 142.396 548.375 143.135C548.849 143.864 549.086 144.78 549.086 145.883V152.773C549.086 153.266 549.127 153.79 549.209 154.346C549.3 154.902 549.432 155.38 549.605 155.781V156H546.967C546.839 155.708 546.739 155.321 546.666 154.838C546.593 154.346 546.557 153.89 546.557 153.471ZM546.994 147.031L547.021 148.809H544.465C543.745 148.809 543.102 148.868 542.537 148.986C541.972 149.096 541.498 149.264 541.115 149.492C540.732 149.72 540.441 150.007 540.24 150.354C540.04 150.691 539.939 151.087 539.939 151.543C539.939 152.008 540.044 152.432 540.254 152.814C540.464 153.197 540.778 153.503 541.197 153.73C541.626 153.949 542.15 154.059 542.77 154.059C543.544 154.059 544.228 153.895 544.82 153.566C545.413 153.238 545.882 152.837 546.229 152.363C546.584 151.889 546.775 151.429 546.803 150.982L547.883 152.199C547.819 152.582 547.646 153.006 547.363 153.471C547.081 153.936 546.702 154.382 546.229 154.811C545.764 155.23 545.208 155.581 544.561 155.863C543.923 156.137 543.202 156.273 542.4 156.273C541.398 156.273 540.518 156.077 539.762 155.686C539.014 155.294 538.431 154.77 538.012 154.113C537.602 153.448 537.396 152.705 537.396 151.885C537.396 151.092 537.551 150.395 537.861 149.793C538.171 149.182 538.618 148.676 539.201 148.275C539.785 147.865 540.486 147.555 541.307 147.346C542.127 147.136 543.043 147.031 544.055 147.031H546.994ZM555.812 135V156H553.27V135H555.812ZM562.621 135V156H560.078V135H562.621ZM570.838 154.469L574.953 141.207H577.66L571.727 158.283C571.59 158.648 571.408 159.04 571.18 159.459C570.961 159.887 570.678 160.293 570.332 160.676C569.986 161.059 569.566 161.368 569.074 161.605C568.591 161.852 568.012 161.975 567.338 161.975C567.137 161.975 566.882 161.947 566.572 161.893C566.262 161.838 566.044 161.792 565.916 161.756L565.902 159.705C565.975 159.714 566.089 159.723 566.244 159.732C566.408 159.751 566.522 159.76 566.586 159.76C567.16 159.76 567.648 159.682 568.049 159.527C568.45 159.382 568.787 159.131 569.061 158.775C569.343 158.429 569.585 157.951 569.785 157.34L570.838 154.469ZM567.816 141.207L571.658 152.691L572.314 155.357L570.496 156.287L565.055 141.207H567.816ZM590.635 153.375L594.436 141.207H596.104L595.775 143.627L591.906 156H590.279L590.635 153.375ZM588.078 141.207L591.318 153.512L591.551 156H589.842L585.549 141.207H588.078ZM599.74 153.416L602.83 141.207H605.346L601.053 156H599.357L599.74 153.416ZM596.473 141.207L600.191 153.17L600.615 156H599.002L595.023 143.6L594.695 141.207H596.473ZM610.691 141.207V156H608.148V141.207H610.691ZM607.957 137.283C607.957 136.873 608.08 136.527 608.326 136.244C608.581 135.962 608.955 135.82 609.447 135.82C609.93 135.82 610.299 135.962 610.555 136.244C610.819 136.527 610.951 136.873 610.951 137.283C610.951 137.675 610.819 138.012 610.555 138.295C610.299 138.568 609.93 138.705 609.447 138.705C608.955 138.705 608.581 138.568 608.326 138.295C608.08 138.012 607.957 137.675 607.957 137.283ZM620.945 141.207V143.148H612.947V141.207H620.945ZM615.654 137.611H618.184V152.336C618.184 152.837 618.261 153.215 618.416 153.471C618.571 153.726 618.771 153.895 619.018 153.977C619.264 154.059 619.528 154.1 619.811 154.1C620.02 154.1 620.239 154.081 620.467 154.045C620.704 153.999 620.882 153.963 621 153.936L621.014 156C620.813 156.064 620.549 156.123 620.221 156.178C619.902 156.242 619.514 156.273 619.059 156.273C618.439 156.273 617.869 156.15 617.35 155.904C616.83 155.658 616.415 155.248 616.105 154.674C615.805 154.09 615.654 153.307 615.654 152.322V137.611ZM626.441 135V156H623.912V135H626.441ZM625.84 148.043L624.787 148.002C624.796 146.99 624.947 146.056 625.238 145.199C625.53 144.333 625.94 143.581 626.469 142.943C626.997 142.305 627.626 141.813 628.355 141.467C629.094 141.111 629.91 140.934 630.803 140.934C631.532 140.934 632.188 141.034 632.771 141.234C633.355 141.426 633.852 141.736 634.262 142.164C634.681 142.592 635 143.148 635.219 143.832C635.438 144.507 635.547 145.331 635.547 146.307V156H633.004V146.279C633.004 145.505 632.89 144.885 632.662 144.42C632.434 143.946 632.102 143.604 631.664 143.395C631.227 143.176 630.689 143.066 630.051 143.066C629.422 143.066 628.848 143.199 628.328 143.463C627.818 143.727 627.376 144.092 627.002 144.557C626.637 145.021 626.35 145.555 626.141 146.156C625.94 146.749 625.84 147.378 625.84 148.043ZM650.436 154.469L654.551 141.207H657.258L651.324 158.283C651.188 158.648 651.005 159.04 650.777 159.459C650.559 159.887 650.276 160.293 649.93 160.676C649.583 161.059 649.164 161.368 648.672 161.605C648.189 161.852 647.61 161.975 646.936 161.975C646.735 161.975 646.48 161.947 646.17 161.893C645.86 161.838 645.641 161.792 645.514 161.756L645.5 159.705C645.573 159.714 645.687 159.723 645.842 159.732C646.006 159.751 646.12 159.76 646.184 159.76C646.758 159.76 647.245 159.682 647.646 159.527C648.048 159.382 648.385 159.131 648.658 158.775C648.941 158.429 649.182 157.951 649.383 157.34L650.436 154.469ZM647.414 141.207L651.256 152.691L651.912 155.357L650.094 156.287L644.652 141.207H647.414ZM658.652 148.768V148.453C658.652 147.387 658.807 146.398 659.117 145.486C659.427 144.566 659.874 143.768 660.457 143.094C661.04 142.41 661.747 141.882 662.576 141.508C663.406 141.125 664.335 140.934 665.365 140.934C666.404 140.934 667.339 141.125 668.168 141.508C669.007 141.882 669.717 142.41 670.301 143.094C670.893 143.768 671.344 144.566 671.654 145.486C671.964 146.398 672.119 147.387 672.119 148.453V148.768C672.119 149.834 671.964 150.823 671.654 151.734C671.344 152.646 670.893 153.443 670.301 154.127C669.717 154.801 669.011 155.33 668.182 155.713C667.361 156.087 666.432 156.273 665.393 156.273C664.354 156.273 663.419 156.087 662.59 155.713C661.76 155.33 661.049 154.801 660.457 154.127C659.874 153.443 659.427 152.646 659.117 151.734C658.807 150.823 658.652 149.834 658.652 148.768ZM661.182 148.453V148.768C661.182 149.506 661.268 150.203 661.441 150.859C661.615 151.507 661.874 152.081 662.221 152.582C662.576 153.083 663.018 153.48 663.547 153.771C664.076 154.054 664.691 154.195 665.393 154.195C666.085 154.195 666.691 154.054 667.211 153.771C667.74 153.48 668.177 153.083 668.523 152.582C668.87 152.081 669.13 151.507 669.303 150.859C669.485 150.203 669.576 149.506 669.576 148.768V148.453C669.576 147.724 669.485 147.036 669.303 146.389C669.13 145.732 668.865 145.154 668.51 144.652C668.163 144.142 667.726 143.741 667.197 143.449C666.678 143.158 666.067 143.012 665.365 143.012C664.673 143.012 664.062 143.158 663.533 143.449C663.014 143.741 662.576 144.142 662.221 144.652C661.874 145.154 661.615 145.732 661.441 146.389C661.268 147.036 661.182 147.724 661.182 148.453ZM684.342 152.582V141.207H686.885V156H684.465L684.342 152.582ZM684.82 149.465L685.873 149.438C685.873 150.422 685.768 151.333 685.559 152.172C685.358 153.001 685.03 153.721 684.574 154.332C684.118 154.943 683.521 155.421 682.783 155.768C682.045 156.105 681.147 156.273 680.09 156.273C679.37 156.273 678.709 156.169 678.107 155.959C677.515 155.749 677.005 155.426 676.576 154.988C676.148 154.551 675.815 153.981 675.578 153.279C675.35 152.577 675.236 151.734 675.236 150.75V141.207H677.766V150.777C677.766 151.443 677.839 151.994 677.984 152.432C678.139 152.86 678.344 153.202 678.6 153.457C678.864 153.703 679.156 153.876 679.475 153.977C679.803 154.077 680.14 154.127 680.486 154.127C681.562 154.127 682.414 153.922 683.043 153.512C683.672 153.092 684.123 152.532 684.396 151.83C684.679 151.119 684.82 150.331 684.82 149.465ZM693.27 143.531V156H690.74V141.207H693.201L693.27 143.531ZM697.891 141.125L697.877 143.477C697.667 143.431 697.467 143.404 697.275 143.395C697.093 143.376 696.883 143.367 696.646 143.367C696.063 143.367 695.548 143.458 695.102 143.641C694.655 143.823 694.277 144.078 693.967 144.406C693.657 144.734 693.411 145.126 693.229 145.582C693.055 146.029 692.941 146.521 692.887 147.059L692.176 147.469C692.176 146.576 692.262 145.737 692.436 144.953C692.618 144.169 692.896 143.477 693.27 142.875C693.643 142.264 694.117 141.79 694.691 141.453C695.275 141.107 695.967 140.934 696.77 140.934C696.952 140.934 697.161 140.956 697.398 141.002C697.635 141.038 697.799 141.079 697.891 141.125ZM716.498 153.129V135H719.041V156H716.717L716.498 153.129ZM706.545 148.768V148.48C706.545 147.35 706.682 146.325 706.955 145.404C707.238 144.475 707.634 143.677 708.145 143.012C708.664 142.346 709.279 141.836 709.99 141.48C710.71 141.116 711.512 140.934 712.396 140.934C713.326 140.934 714.137 141.098 714.83 141.426C715.532 141.745 716.124 142.214 716.607 142.834C717.1 143.445 717.487 144.183 717.77 145.049C718.052 145.915 718.248 146.895 718.357 147.988V149.246C718.257 150.331 718.061 151.306 717.77 152.172C717.487 153.038 717.1 153.776 716.607 154.387C716.124 154.997 715.532 155.467 714.83 155.795C714.128 156.114 713.308 156.273 712.369 156.273C711.503 156.273 710.71 156.087 709.99 155.713C709.279 155.339 708.664 154.815 708.145 154.141C707.634 153.466 707.238 152.673 706.955 151.762C706.682 150.841 706.545 149.843 706.545 148.768ZM709.088 148.48V148.768C709.088 149.506 709.161 150.199 709.307 150.846C709.462 151.493 709.699 152.062 710.018 152.555C710.337 153.047 710.742 153.434 711.234 153.717C711.727 153.99 712.314 154.127 712.998 154.127C713.837 154.127 714.525 153.949 715.062 153.594C715.609 153.238 716.047 152.769 716.375 152.186C716.703 151.602 716.958 150.969 717.141 150.285V146.99C717.031 146.489 716.872 146.006 716.662 145.541C716.462 145.067 716.197 144.648 715.869 144.283C715.55 143.91 715.154 143.613 714.68 143.395C714.215 143.176 713.663 143.066 713.025 143.066C712.333 143.066 711.736 143.212 711.234 143.504C710.742 143.786 710.337 144.178 710.018 144.68C709.699 145.172 709.462 145.746 709.307 146.402C709.161 147.049 709.088 147.742 709.088 148.48ZM729.117 156.273C728.087 156.273 727.153 156.1 726.314 155.754C725.485 155.398 724.77 154.902 724.168 154.264C723.576 153.626 723.12 152.869 722.801 151.994C722.482 151.119 722.322 150.162 722.322 149.123V148.549C722.322 147.346 722.5 146.275 722.855 145.336C723.211 144.388 723.694 143.586 724.305 142.93C724.915 142.273 725.608 141.777 726.383 141.439C727.158 141.102 727.96 140.934 728.789 140.934C729.846 140.934 730.758 141.116 731.523 141.48C732.298 141.845 732.932 142.355 733.424 143.012C733.916 143.659 734.281 144.424 734.518 145.309C734.755 146.184 734.873 147.141 734.873 148.18V149.314H723.826V147.25H732.344V147.059C732.307 146.402 732.171 145.764 731.934 145.145C731.706 144.525 731.341 144.014 730.84 143.613C730.339 143.212 729.655 143.012 728.789 143.012C728.215 143.012 727.686 143.135 727.203 143.381C726.72 143.618 726.305 143.973 725.959 144.447C725.613 144.921 725.344 145.5 725.152 146.184C724.961 146.867 724.865 147.656 724.865 148.549V149.123C724.865 149.825 724.961 150.486 725.152 151.105C725.353 151.716 725.64 152.254 726.014 152.719C726.396 153.184 726.857 153.548 727.395 153.812C727.941 154.077 728.561 154.209 729.254 154.209C730.147 154.209 730.904 154.027 731.523 153.662C732.143 153.298 732.686 152.81 733.15 152.199L734.682 153.416C734.363 153.899 733.957 154.359 733.465 154.797C732.973 155.234 732.367 155.59 731.646 155.863C730.936 156.137 730.092 156.273 729.117 156.273ZM746.439 152.076C746.439 151.712 746.357 151.374 746.193 151.064C746.038 150.745 745.715 150.458 745.223 150.203C744.74 149.939 744.01 149.711 743.035 149.52C742.215 149.346 741.472 149.141 740.807 148.904C740.15 148.667 739.59 148.38 739.125 148.043C738.669 147.706 738.318 147.309 738.072 146.854C737.826 146.398 737.703 145.865 737.703 145.254C737.703 144.671 737.831 144.119 738.086 143.6C738.35 143.08 738.719 142.62 739.193 142.219C739.676 141.818 740.255 141.503 740.93 141.275C741.604 141.048 742.356 140.934 743.186 140.934C744.37 140.934 745.382 141.143 746.221 141.562C747.059 141.982 747.702 142.542 748.148 143.244C748.595 143.937 748.818 144.707 748.818 145.555H746.289C746.289 145.145 746.166 144.748 745.92 144.365C745.683 143.973 745.332 143.65 744.867 143.395C744.411 143.139 743.851 143.012 743.186 143.012C742.484 143.012 741.914 143.121 741.477 143.34C741.048 143.549 740.734 143.818 740.533 144.146C740.342 144.475 740.246 144.821 740.246 145.186C740.246 145.459 740.292 145.705 740.383 145.924C740.483 146.133 740.656 146.329 740.902 146.512C741.148 146.685 741.495 146.849 741.941 147.004C742.388 147.159 742.958 147.314 743.65 147.469C744.863 147.742 745.861 148.07 746.645 148.453C747.428 148.836 748.012 149.305 748.395 149.861C748.777 150.417 748.969 151.092 748.969 151.885C748.969 152.532 748.832 153.124 748.559 153.662C748.294 154.2 747.907 154.665 747.396 155.057C746.895 155.439 746.294 155.74 745.592 155.959C744.899 156.169 744.12 156.273 743.254 156.273C741.951 156.273 740.848 156.041 739.945 155.576C739.043 155.111 738.359 154.51 737.895 153.771C737.43 153.033 737.197 152.254 737.197 151.434H739.74C739.777 152.126 739.977 152.678 740.342 153.088C740.706 153.489 741.153 153.776 741.682 153.949C742.21 154.113 742.734 154.195 743.254 154.195C743.947 154.195 744.525 154.104 744.99 153.922C745.464 153.74 745.824 153.489 746.07 153.17C746.316 152.851 746.439 152.486 746.439 152.076ZM755.039 141.207V156H752.496V141.207H755.039ZM752.305 137.283C752.305 136.873 752.428 136.527 752.674 136.244C752.929 135.962 753.303 135.82 753.795 135.82C754.278 135.82 754.647 135.962 754.902 136.244C755.167 136.527 755.299 136.873 755.299 137.283C755.299 137.675 755.167 138.012 754.902 138.295C754.647 138.568 754.278 138.705 753.795 138.705C753.303 138.705 752.929 138.568 752.674 138.295C752.428 138.012 752.305 137.675 752.305 137.283ZM768.684 141.207H770.98V155.686C770.98 156.989 770.716 158.101 770.188 159.021C769.659 159.942 768.921 160.639 767.973 161.113C767.034 161.596 765.949 161.838 764.719 161.838C764.208 161.838 763.607 161.756 762.914 161.592C762.23 161.437 761.556 161.168 760.891 160.785C760.234 160.411 759.683 159.906 759.236 159.268L760.562 157.764C761.182 158.511 761.829 159.031 762.504 159.322C763.188 159.614 763.862 159.76 764.527 159.76C765.329 159.76 766.022 159.609 766.605 159.309C767.189 159.008 767.64 158.561 767.959 157.969C768.287 157.385 768.451 156.665 768.451 155.809V144.461L768.684 141.207ZM758.498 148.768V148.48C758.498 147.35 758.63 146.325 758.895 145.404C759.168 144.475 759.555 143.677 760.057 143.012C760.567 142.346 761.182 141.836 761.902 141.48C762.622 141.116 763.434 140.934 764.336 140.934C765.266 140.934 766.077 141.098 766.77 141.426C767.471 141.745 768.064 142.214 768.547 142.834C769.039 143.445 769.426 144.183 769.709 145.049C769.992 145.915 770.188 146.895 770.297 147.988V149.246C770.197 150.331 770.001 151.306 769.709 152.172C769.426 153.038 769.039 153.776 768.547 154.387C768.064 154.997 767.471 155.467 766.77 155.795C766.068 156.114 765.247 156.273 764.309 156.273C763.424 156.273 762.622 156.087 761.902 155.713C761.191 155.339 760.581 154.815 760.07 154.141C759.56 153.466 759.168 152.673 758.895 151.762C758.63 150.841 758.498 149.843 758.498 148.768ZM761.027 148.48V148.768C761.027 149.506 761.1 150.199 761.246 150.846C761.401 151.493 761.633 152.062 761.943 152.555C762.262 153.047 762.668 153.434 763.16 153.717C763.652 153.99 764.24 154.127 764.924 154.127C765.762 154.127 766.455 153.949 767.002 153.594C767.549 153.238 767.982 152.769 768.301 152.186C768.629 151.602 768.884 150.969 769.066 150.285V146.99C768.966 146.489 768.811 146.006 768.602 145.541C768.401 145.067 768.137 144.648 767.809 144.283C767.49 143.91 767.093 143.613 766.619 143.395C766.145 143.176 765.589 143.066 764.951 143.066C764.258 143.066 763.661 143.212 763.16 143.504C762.668 143.786 762.262 144.178 761.943 144.68C761.633 145.172 761.401 145.746 761.246 146.402C761.1 147.049 761.027 147.742 761.027 148.48ZM777.352 144.365V156H774.822V141.207H777.215L777.352 144.365ZM776.75 148.043L775.697 148.002C775.706 146.99 775.857 146.056 776.148 145.199C776.44 144.333 776.85 143.581 777.379 142.943C777.908 142.305 778.536 141.813 779.266 141.467C780.004 141.111 780.82 140.934 781.713 140.934C782.442 140.934 783.098 141.034 783.682 141.234C784.265 141.426 784.762 141.736 785.172 142.164C785.591 142.592 785.91 143.148 786.129 143.832C786.348 144.507 786.457 145.331 786.457 146.307V156H783.914V146.279C783.914 145.505 783.8 144.885 783.572 144.42C783.344 143.946 783.012 143.604 782.574 143.395C782.137 143.176 781.599 143.066 780.961 143.066C780.332 143.066 779.758 143.199 779.238 143.463C778.728 143.727 778.286 144.092 777.912 144.557C777.548 145.021 777.26 145.555 777.051 146.156C776.85 146.749 776.75 147.378 776.75 148.043Z" fill="#171717"/>
<path d="M373.164 51.6094H387.903C390.839 51.6094 393.379 52.0488 395.523 52.9277C397.686 53.8066 399.347 55.1074 400.507 56.8301C401.667 58.5527 402.247 60.6797 402.247 63.2109C402.247 65.3203 401.904 67.1133 401.219 68.5898C400.533 70.0664 399.566 71.2881 398.318 72.2549C397.088 73.2217 395.646 74.0039 393.994 74.6016L391.199 76.1309H378.648L378.596 69.46H387.93C389.213 69.46 390.276 69.2314 391.12 68.7744C391.964 68.3174 392.597 67.6758 393.019 66.8496C393.458 66.0059 393.678 65.0215 393.678 63.8965C393.678 62.7363 393.458 61.7344 393.019 60.8906C392.579 60.0469 391.929 59.4053 391.067 58.9658C390.224 58.5088 389.169 58.2803 387.903 58.2803H381.76V90H373.164V51.6094ZM394.416 90L385.794 72.9404L394.864 72.9141L403.618 89.6045V90H394.416ZM421.1 90.5273C418.832 90.5273 416.802 90.167 415.009 89.4463C413.216 88.7256 411.695 87.7324 410.447 86.4668C409.217 85.1836 408.276 83.707 407.626 82.0371C406.976 80.3672 406.65 78.583 406.65 76.6846V75.6826C406.65 73.5557 406.949 71.5957 407.547 69.8027C408.145 68.0098 409.015 66.4541 410.157 65.1357C411.317 63.7998 412.741 62.7715 414.429 62.0508C416.116 61.3125 418.041 60.9434 420.203 60.9434C422.225 60.9434 424.026 61.2773 425.608 61.9453C427.19 62.5957 428.526 63.5361 429.616 64.7666C430.706 65.9795 431.532 67.4473 432.095 69.1699C432.675 70.875 432.965 72.791 432.965 74.918V78.293H409.973V72.9932H424.896V72.3604C424.896 71.3584 424.712 70.4795 424.343 69.7236C423.991 68.9678 423.464 68.3877 422.761 67.9834C422.075 67.5615 421.205 67.3506 420.15 67.3506C419.148 67.3506 418.313 67.5615 417.646 67.9834C416.978 68.4053 416.441 69.0029 416.037 69.7764C415.65 70.5322 415.369 71.4199 415.193 72.4395C415.018 73.4414 414.93 74.5225 414.93 75.6826V76.6846C414.93 77.792 415.079 78.8027 415.378 79.7168C415.677 80.6309 416.116 81.4131 416.696 82.0635C417.276 82.7139 417.979 83.2236 418.806 83.5928C419.632 83.9619 420.572 84.1465 421.627 84.1465C422.928 84.1465 424.167 83.9004 425.345 83.4082C426.522 82.8984 427.542 82.1074 428.403 81.0352L432.253 85.4385C431.673 86.2822 430.855 87.0996 429.801 87.8906C428.764 88.6641 427.516 89.2969 426.057 89.7891C424.598 90.2812 422.945 90.5273 421.1 90.5273ZM452.081 83.1973V70.9629C452.081 70.1016 451.949 69.3633 451.686 68.748C451.422 68.1328 451.009 67.6494 450.446 67.2979C449.884 66.9463 449.154 66.7705 448.258 66.7705C447.502 66.7705 446.843 66.9023 446.28 67.166C445.735 67.4297 445.313 67.8076 445.015 68.2998C444.733 68.792 444.593 69.3984 444.593 70.1191H436.366C436.366 68.8359 436.656 67.6406 437.236 66.5332C437.816 65.4258 438.643 64.4502 439.715 63.6064C440.805 62.7627 442.105 62.1123 443.617 61.6553C445.129 61.1807 446.825 60.9434 448.706 60.9434C450.938 60.9434 452.925 61.3213 454.665 62.0771C456.423 62.8154 457.812 63.9316 458.831 65.4258C459.851 66.9023 460.36 68.7656 460.36 71.0156V82.96C460.36 84.6826 460.457 86.0361 460.65 87.0205C460.861 87.9873 461.16 88.8311 461.547 89.5518V90H453.241C452.854 89.1738 452.564 88.1543 452.371 86.9414C452.178 85.7109 452.081 84.4629 452.081 83.1973ZM453.109 72.5977L453.162 77.1328H449.075C448.161 77.1328 447.37 77.2471 446.702 77.4756C446.052 77.7041 445.524 78.0205 445.12 78.4248C444.716 78.8115 444.417 79.2686 444.224 79.7959C444.048 80.3057 443.96 80.8682 443.96 81.4834C443.96 82.0635 444.101 82.5908 444.382 83.0654C444.663 83.5225 445.05 83.8828 445.542 84.1465C446.034 84.4102 446.605 84.542 447.256 84.542C448.328 84.542 449.242 84.3311 449.998 83.9092C450.771 83.4873 451.369 82.9775 451.791 82.3799C452.213 81.7646 452.424 81.1934 452.424 80.666L454.401 84.0938C454.085 84.7969 453.698 85.5264 453.241 86.2822C452.784 87.0205 452.204 87.7148 451.501 88.3652C450.798 88.998 449.945 89.5166 448.943 89.9209C447.959 90.3252 446.772 90.5273 445.384 90.5273C443.591 90.5273 441.965 90.167 440.506 89.4463C439.047 88.708 437.878 87.6973 436.999 86.4141C436.138 85.1309 435.707 83.6543 435.707 81.9844C435.707 80.4902 435.979 79.1631 436.524 78.0029C437.069 76.8428 437.887 75.8584 438.977 75.0498C440.084 74.2412 441.473 73.6348 443.143 73.2305C444.812 72.8086 446.764 72.5977 448.996 72.5977H453.109ZM477.684 84.1201C478.562 84.1201 479.327 83.9531 479.978 83.6191C480.628 83.2852 481.129 82.8193 481.48 82.2217C481.85 81.6064 482.034 80.8682 482.034 80.0068H489.786C489.786 82.0811 489.25 83.9092 488.178 85.4912C487.123 87.0732 485.699 88.3125 483.906 89.209C482.113 90.0879 480.092 90.5273 477.842 90.5273C475.627 90.5273 473.693 90.167 472.041 89.4463C470.389 88.708 469.009 87.6797 467.901 86.3613C466.794 85.043 465.959 83.5137 465.396 81.7734C464.852 80.0156 464.579 78.1172 464.579 76.0781V75.3926C464.579 73.3711 464.852 71.4814 465.396 69.7236C465.959 67.9658 466.794 66.4277 467.901 65.1094C469.009 63.791 470.38 62.7715 472.015 62.0508C473.667 61.3125 475.601 60.9434 477.815 60.9434C480.153 60.9434 482.219 61.3916 484.012 62.2881C485.822 63.1846 487.237 64.4766 488.257 66.1641C489.276 67.834 489.786 69.8467 489.786 72.2021H482.034C482.034 71.2881 481.867 70.4707 481.533 69.75C481.217 69.0117 480.725 68.4316 480.057 68.0098C479.406 67.5703 478.598 67.3506 477.631 67.3506C476.629 67.3506 475.803 67.5703 475.152 68.0098C474.52 68.4316 474.036 69.0205 473.702 69.7764C473.368 70.5322 473.14 71.3936 473.017 72.3604C472.894 73.3096 472.832 74.3203 472.832 75.3926V76.0781C472.832 77.168 472.894 78.2051 473.017 79.1895C473.14 80.1562 473.368 81.0088 473.702 81.7471C474.054 82.4854 474.546 83.0654 475.179 83.4873C475.812 83.9092 476.646 84.1201 477.684 84.1201ZM508.375 61.4707V67.2451H491.447V61.4707H508.375ZM495.323 54.4043H503.576V81.0615C503.576 81.8525 503.673 82.459 503.866 82.8809C504.06 83.3027 504.376 83.6016 504.815 83.7773C505.255 83.9355 505.817 84.0146 506.503 84.0146C506.995 84.0146 507.417 83.9971 507.769 83.9619C508.12 83.9268 508.445 83.8828 508.744 83.8301V89.7891C508.041 90.0176 507.294 90.1934 506.503 90.3164C505.712 90.457 504.851 90.5273 503.919 90.5273C502.144 90.5273 500.605 90.2373 499.305 89.6572C498.021 89.0771 497.037 88.1631 496.352 86.915C495.666 85.6494 495.323 84.0059 495.323 81.9844V54.4043ZM542.151 58.9131L532.237 90H523.062L537.273 51.6094H543.074L542.151 58.9131ZM550.378 90L540.438 58.9131L539.409 51.6094H545.289L559.554 90H550.378ZM549.956 75.709V82.3535H529.943V75.709H549.956ZM576.35 61.4707V67.2451H559.422V61.4707H576.35ZM563.298 54.4043H571.551V81.0615C571.551 81.8525 571.647 82.459 571.841 82.8809C572.034 83.3027 572.351 83.6016 572.79 83.7773C573.229 83.9355 573.792 84.0146 574.478 84.0146C574.97 84.0146 575.392 83.9971 575.743 83.9619C576.095 83.9268 576.42 83.8828 576.719 83.8301V89.7891C576.016 90.0176 575.269 90.1934 574.478 90.3164C573.687 90.457 572.825 90.5273 571.894 90.5273C570.118 90.5273 568.58 90.2373 567.279 89.6572C565.996 89.0771 565.012 88.1631 564.326 86.915C563.641 85.6494 563.298 84.0059 563.298 81.9844V54.4043ZM578.38 76.0254V75.4717C578.38 73.3799 578.679 71.4551 579.276 69.6973C579.874 67.9219 580.753 66.3838 581.913 65.083C583.073 63.7822 584.497 62.7715 586.185 62.0508C587.872 61.3125 589.806 60.9434 591.985 60.9434C594.2 60.9434 596.151 61.3125 597.839 62.0508C599.544 62.7715 600.977 63.7822 602.137 65.083C603.297 66.3838 604.176 67.9219 604.773 69.6973C605.371 71.4551 605.67 73.3799 605.67 75.4717V76.0254C605.67 78.0996 605.371 80.0244 604.773 81.7998C604.176 83.5576 603.297 85.0957 602.137 86.4141C600.977 87.7148 599.553 88.7256 597.865 89.4463C596.178 90.167 594.235 90.5273 592.038 90.5273C589.858 90.5273 587.916 90.167 586.211 89.4463C584.506 88.7256 583.073 87.7148 581.913 86.4141C580.753 85.0957 579.874 83.5576 579.276 81.7998C578.679 80.0244 578.38 78.0996 578.38 76.0254ZM586.633 75.4717V76.0254C586.633 77.1504 586.721 78.2051 586.896 79.1895C587.09 80.1738 587.397 81.0352 587.819 81.7734C588.241 82.5117 588.795 83.0918 589.48 83.5137C590.184 83.918 591.036 84.1201 592.038 84.1201C593.04 84.1201 593.884 83.918 594.569 83.5137C595.255 83.0918 595.809 82.5117 596.23 81.7734C596.652 81.0352 596.951 80.1738 597.127 79.1895C597.32 78.2051 597.417 77.1504 597.417 76.0254V75.4717C597.417 74.3643 597.32 73.3271 597.127 72.3604C596.951 71.376 596.652 70.5059 596.23 69.75C595.809 68.9941 595.246 68.4053 594.543 67.9834C593.857 67.5615 593.005 67.3506 591.985 67.3506C591.001 67.3506 590.166 67.5615 589.48 67.9834C588.795 68.4053 588.241 68.9941 587.819 69.75C587.397 70.5059 587.09 71.376 586.896 72.3604C586.721 73.3271 586.633 74.3643 586.633 75.4717ZM618.247 67.4561V90H610.021V61.4707H617.746L618.247 67.4561ZM617.192 74.7334L615.109 74.7861C615.109 72.7822 615.347 70.9453 615.821 69.2754C616.313 67.5879 617.025 66.1201 617.957 64.8721C618.889 63.624 620.04 62.6572 621.411 61.9717C622.8 61.2861 624.399 60.9434 626.21 60.9434C627.476 60.9434 628.627 61.1367 629.664 61.5234C630.701 61.8926 631.589 62.4814 632.327 63.29C633.083 64.0811 633.663 65.1182 634.067 66.4014C634.472 67.667 634.674 69.1875 634.674 70.9629V90H626.447V71.9648C626.447 70.6992 626.289 69.7412 625.973 69.0908C625.674 68.4229 625.234 67.9658 624.654 67.7197C624.074 67.4736 623.38 67.3506 622.571 67.3506C621.692 67.3506 620.91 67.5439 620.225 67.9307C619.557 68.2998 618.994 68.8184 618.537 69.4863C618.08 70.1543 617.737 70.9365 617.509 71.833C617.298 72.7295 617.192 73.6963 617.192 74.7334ZM633.83 74.3115L631.22 74.5225C631.22 72.5889 631.448 70.7959 631.905 69.1436C632.362 67.4912 633.048 66.0586 633.962 64.8457C634.876 63.6152 636.01 62.6572 637.363 61.9717C638.734 61.2861 640.325 60.9434 642.136 60.9434C643.472 60.9434 644.685 61.1367 645.774 61.5234C646.882 61.9102 647.831 62.5342 648.622 63.3955C649.431 64.2568 650.055 65.3906 650.494 66.7969C650.934 68.1855 651.153 69.8906 651.153 71.9121V90H642.874V71.9121C642.874 70.6641 642.716 69.7148 642.399 69.0645C642.101 68.4141 641.661 67.9658 641.081 67.7197C640.519 67.4736 639.842 67.3506 639.051 67.3506C638.172 67.3506 637.407 67.5352 636.757 67.9043C636.106 68.2559 635.562 68.748 635.122 69.3809C634.683 69.9961 634.357 70.7256 634.146 71.5693C633.936 72.4131 633.83 73.3271 633.83 74.3115Z" fill="#4CB074"/>
</svg>
