<svg width="1024" height="200" viewBox="0 0 1024 200" fill="none" xmlns="http://www.w3.org/2000/svg">
<rect width="1024" height="200" fill="white"/>
<path d="M271.406 146.689H266.361L266.334 144.57H270.914C271.671 144.57 272.331 144.443 272.896 144.188C273.462 143.932 273.899 143.568 274.209 143.094C274.528 142.611 274.688 142.036 274.688 141.371C274.688 140.642 274.546 140.049 274.264 139.594C273.99 139.129 273.566 138.792 272.992 138.582C272.427 138.363 271.707 138.254 270.832 138.254H266.949V156H264.311V136.094H270.832C271.853 136.094 272.764 136.199 273.566 136.408C274.368 136.609 275.048 136.928 275.604 137.365C276.169 137.794 276.597 138.34 276.889 139.006C277.18 139.671 277.326 140.469 277.326 141.398C277.326 142.219 277.117 142.962 276.697 143.627C276.278 144.283 275.695 144.821 274.947 145.24C274.209 145.66 273.343 145.928 272.35 146.047L271.406 146.689ZM271.283 156H265.322L266.812 153.854H271.283C272.122 153.854 272.833 153.708 273.416 153.416C274.008 153.124 274.46 152.714 274.77 152.186C275.079 151.648 275.234 151.014 275.234 150.285C275.234 149.547 275.102 148.909 274.838 148.371C274.574 147.833 274.159 147.419 273.594 147.127C273.029 146.835 272.299 146.689 271.406 146.689H267.646L267.674 144.57H272.814L273.375 145.336C274.332 145.418 275.143 145.691 275.809 146.156C276.474 146.612 276.98 147.195 277.326 147.906C277.682 148.617 277.859 149.401 277.859 150.258C277.859 151.497 277.586 152.546 277.039 153.402C276.501 154.25 275.74 154.897 274.756 155.344C273.771 155.781 272.614 156 271.283 156ZM290.424 152.582V141.207H292.967V156H290.547L290.424 152.582ZM290.902 149.465L291.955 149.438C291.955 150.422 291.85 151.333 291.641 152.172C291.44 153.001 291.112 153.721 290.656 154.332C290.201 154.943 289.604 155.421 288.865 155.768C288.127 156.105 287.229 156.273 286.172 156.273C285.452 156.273 284.791 156.169 284.189 155.959C283.597 155.749 283.087 155.426 282.658 154.988C282.23 154.551 281.897 153.981 281.66 153.279C281.432 152.577 281.318 151.734 281.318 150.75V141.207H283.848V150.777C283.848 151.443 283.921 151.994 284.066 152.432C284.221 152.86 284.426 153.202 284.682 153.457C284.946 153.703 285.238 153.876 285.557 153.977C285.885 154.077 286.222 154.127 286.568 154.127C287.644 154.127 288.496 153.922 289.125 153.512C289.754 153.092 290.205 152.532 290.479 151.83C290.761 151.119 290.902 150.331 290.902 149.465ZM299.57 141.207V156H297.027V141.207H299.57ZM296.836 137.283C296.836 136.873 296.959 136.527 297.205 136.244C297.46 135.962 297.834 135.82 298.326 135.82C298.809 135.82 299.178 135.962 299.434 136.244C299.698 136.527 299.83 136.873 299.83 137.283C299.83 137.675 299.698 138.012 299.434 138.295C299.178 138.568 298.809 138.705 298.326 138.705C297.834 138.705 297.46 138.568 297.205 138.295C296.959 138.012 296.836 137.675 296.836 137.283ZM306.379 135V156H303.836V135H306.379ZM319.764 153.129V135H322.307V156H319.982L319.764 153.129ZM309.811 148.768V148.48C309.811 147.35 309.947 146.325 310.221 145.404C310.503 144.475 310.9 143.677 311.41 143.012C311.93 142.346 312.545 141.836 313.256 141.48C313.976 141.116 314.778 140.934 315.662 140.934C316.592 140.934 317.403 141.098 318.096 141.426C318.798 141.745 319.39 142.214 319.873 142.834C320.365 143.445 320.753 144.183 321.035 145.049C321.318 145.915 321.514 146.895 321.623 147.988V149.246C321.523 150.331 321.327 151.306 321.035 152.172C320.753 153.038 320.365 153.776 319.873 154.387C319.39 154.997 318.798 155.467 318.096 155.795C317.394 156.114 316.574 156.273 315.635 156.273C314.769 156.273 313.976 156.087 313.256 155.713C312.545 155.339 311.93 154.815 311.41 154.141C310.9 153.466 310.503 152.673 310.221 151.762C309.947 150.841 309.811 149.843 309.811 148.768ZM312.354 148.48V148.768C312.354 149.506 312.426 150.199 312.572 150.846C312.727 151.493 312.964 152.062 313.283 152.555C313.602 153.047 314.008 153.434 314.5 153.717C314.992 153.99 315.58 154.127 316.264 154.127C317.102 154.127 317.79 153.949 318.328 153.594C318.875 153.238 319.312 152.769 319.641 152.186C319.969 151.602 320.224 150.969 320.406 150.285V146.99C320.297 146.489 320.137 146.006 319.928 145.541C319.727 145.067 319.463 144.648 319.135 144.283C318.816 143.91 318.419 143.613 317.945 143.395C317.48 143.176 316.929 143.066 316.291 143.066C315.598 143.066 315.001 143.212 314.5 143.504C314.008 143.786 313.602 144.178 313.283 144.68C312.964 145.172 312.727 145.746 312.572 146.402C312.426 147.049 312.354 147.742 312.354 148.48ZM341.912 153.471V145.855C341.912 145.272 341.794 144.766 341.557 144.338C341.329 143.9 340.982 143.563 340.518 143.326C340.053 143.089 339.479 142.971 338.795 142.971C338.157 142.971 337.596 143.08 337.113 143.299C336.639 143.518 336.266 143.805 335.992 144.16C335.728 144.516 335.596 144.898 335.596 145.309H333.066C333.066 144.78 333.203 144.256 333.477 143.736C333.75 143.217 334.142 142.747 334.652 142.328C335.172 141.9 335.792 141.562 336.512 141.316C337.241 141.061 338.052 140.934 338.945 140.934C340.021 140.934 340.969 141.116 341.789 141.48C342.618 141.845 343.266 142.396 343.73 143.135C344.204 143.864 344.441 144.78 344.441 145.883V152.773C344.441 153.266 344.482 153.79 344.564 154.346C344.656 154.902 344.788 155.38 344.961 155.781V156H342.322C342.195 155.708 342.094 155.321 342.021 154.838C341.949 154.346 341.912 153.89 341.912 153.471ZM342.35 147.031L342.377 148.809H339.82C339.1 148.809 338.458 148.868 337.893 148.986C337.327 149.096 336.854 149.264 336.471 149.492C336.088 149.72 335.796 150.007 335.596 150.354C335.395 150.691 335.295 151.087 335.295 151.543C335.295 152.008 335.4 152.432 335.609 152.814C335.819 153.197 336.133 153.503 336.553 153.73C336.981 153.949 337.505 154.059 338.125 154.059C338.9 154.059 339.583 153.895 340.176 153.566C340.768 153.238 341.238 152.837 341.584 152.363C341.939 151.889 342.131 151.429 342.158 150.982L343.238 152.199C343.174 152.582 343.001 153.006 342.719 153.471C342.436 153.936 342.058 154.382 341.584 154.811C341.119 155.23 340.563 155.581 339.916 155.863C339.278 156.137 338.558 156.273 337.756 156.273C336.753 156.273 335.874 156.077 335.117 155.686C334.37 155.294 333.786 154.77 333.367 154.113C332.957 153.448 332.752 152.705 332.752 151.885C332.752 151.092 332.907 150.395 333.217 149.793C333.527 149.182 333.973 148.676 334.557 148.275C335.14 147.865 335.842 147.555 336.662 147.346C337.482 147.136 338.398 147.031 339.41 147.031H342.35ZM350.949 144.051V161.688H348.406V141.207H350.73L350.949 144.051ZM360.916 148.48V148.768C360.916 149.843 360.788 150.841 360.533 151.762C360.278 152.673 359.904 153.466 359.412 154.141C358.929 154.815 358.332 155.339 357.621 155.713C356.91 156.087 356.094 156.273 355.174 156.273C354.235 156.273 353.406 156.118 352.686 155.809C351.965 155.499 351.355 155.048 350.854 154.455C350.352 153.863 349.951 153.152 349.65 152.322C349.359 151.493 349.158 150.559 349.049 149.52V147.988C349.158 146.895 349.363 145.915 349.664 145.049C349.965 144.183 350.361 143.445 350.854 142.834C351.355 142.214 351.961 141.745 352.672 141.426C353.383 141.098 354.203 140.934 355.133 140.934C356.062 140.934 356.887 141.116 357.607 141.48C358.327 141.836 358.934 142.346 359.426 143.012C359.918 143.677 360.287 144.475 360.533 145.404C360.788 146.325 360.916 147.35 360.916 148.48ZM358.373 148.768V148.48C358.373 147.742 358.296 147.049 358.141 146.402C357.986 145.746 357.744 145.172 357.416 144.68C357.097 144.178 356.687 143.786 356.186 143.504C355.684 143.212 355.087 143.066 354.395 143.066C353.757 143.066 353.201 143.176 352.727 143.395C352.262 143.613 351.865 143.91 351.537 144.283C351.209 144.648 350.94 145.067 350.73 145.541C350.53 146.006 350.38 146.489 350.279 146.99V150.531C350.462 151.169 350.717 151.771 351.045 152.336C351.373 152.892 351.811 153.343 352.357 153.689C352.904 154.027 353.592 154.195 354.422 154.195C355.105 154.195 355.693 154.054 356.186 153.771C356.687 153.48 357.097 153.083 357.416 152.582C357.744 152.081 357.986 151.507 358.141 150.859C358.296 150.203 358.373 149.506 358.373 148.768ZM366.672 144.051V161.688H364.129V141.207H366.453L366.672 144.051ZM376.639 148.48V148.768C376.639 149.843 376.511 150.841 376.256 151.762C376.001 152.673 375.627 153.466 375.135 154.141C374.652 154.815 374.055 155.339 373.344 155.713C372.633 156.087 371.817 156.273 370.896 156.273C369.958 156.273 369.128 156.118 368.408 155.809C367.688 155.499 367.077 155.048 366.576 154.455C366.075 153.863 365.674 153.152 365.373 152.322C365.081 151.493 364.881 150.559 364.771 149.52V147.988C364.881 146.895 365.086 145.915 365.387 145.049C365.688 144.183 366.084 143.445 366.576 142.834C367.077 142.214 367.684 141.745 368.395 141.426C369.105 141.098 369.926 140.934 370.855 140.934C371.785 140.934 372.61 141.116 373.33 141.48C374.05 141.836 374.656 142.346 375.148 143.012C375.641 143.677 376.01 144.475 376.256 145.404C376.511 146.325 376.639 147.35 376.639 148.48ZM374.096 148.768V148.48C374.096 147.742 374.018 147.049 373.863 146.402C373.708 145.746 373.467 145.172 373.139 144.68C372.82 144.178 372.41 143.786 371.908 143.504C371.407 143.212 370.81 143.066 370.117 143.066C369.479 143.066 368.923 143.176 368.449 143.395C367.984 143.613 367.588 143.91 367.26 144.283C366.932 144.648 366.663 145.067 366.453 145.541C366.253 146.006 366.102 146.489 366.002 146.99V150.531C366.184 151.169 366.439 151.771 366.768 152.336C367.096 152.892 367.533 153.343 368.08 153.689C368.627 154.027 369.315 154.195 370.145 154.195C370.828 154.195 371.416 154.054 371.908 153.771C372.41 153.48 372.82 153.083 373.139 152.582C373.467 152.081 373.708 151.507 373.863 150.859C374.018 150.203 374.096 149.506 374.096 148.768ZM382.613 135V156H380.07V135H382.613ZM389.422 141.207V156H386.879V141.207H389.422ZM386.688 137.283C386.688 136.873 386.811 136.527 387.057 136.244C387.312 135.962 387.686 135.82 388.178 135.82C388.661 135.82 389.03 135.962 389.285 136.244C389.549 136.527 389.682 136.873 389.682 137.283C389.682 137.675 389.549 138.012 389.285 138.295C389.03 138.568 388.661 138.705 388.178 138.705C387.686 138.705 387.312 138.568 387.057 138.295C386.811 138.012 386.688 137.675 386.688 137.283ZM399.402 154.195C400.004 154.195 400.56 154.072 401.07 153.826C401.581 153.58 402 153.243 402.328 152.814C402.656 152.377 402.843 151.88 402.889 151.324H405.295C405.249 152.199 404.953 153.015 404.406 153.771C403.868 154.519 403.162 155.125 402.287 155.59C401.412 156.046 400.451 156.273 399.402 156.273C398.29 156.273 397.32 156.077 396.49 155.686C395.67 155.294 394.986 154.756 394.439 154.072C393.902 153.389 393.496 152.605 393.223 151.721C392.958 150.827 392.826 149.884 392.826 148.891V148.316C392.826 147.323 392.958 146.384 393.223 145.5C393.496 144.607 393.902 143.818 394.439 143.135C394.986 142.451 395.67 141.913 396.49 141.521C397.32 141.13 398.29 140.934 399.402 140.934C400.56 140.934 401.572 141.171 402.438 141.645C403.303 142.109 403.982 142.747 404.475 143.559C404.976 144.361 405.249 145.272 405.295 146.293H402.889C402.843 145.682 402.67 145.131 402.369 144.639C402.077 144.146 401.676 143.755 401.166 143.463C400.665 143.162 400.077 143.012 399.402 143.012C398.628 143.012 397.976 143.167 397.447 143.477C396.928 143.777 396.513 144.188 396.203 144.707C395.902 145.217 395.684 145.787 395.547 146.416C395.419 147.036 395.355 147.669 395.355 148.316V148.891C395.355 149.538 395.419 150.176 395.547 150.805C395.674 151.434 395.889 152.003 396.189 152.514C396.499 153.024 396.914 153.434 397.434 153.744C397.962 154.045 398.618 154.195 399.402 154.195ZM416.861 153.471V145.855C416.861 145.272 416.743 144.766 416.506 144.338C416.278 143.9 415.932 143.563 415.467 143.326C415.002 143.089 414.428 142.971 413.744 142.971C413.106 142.971 412.546 143.08 412.062 143.299C411.589 143.518 411.215 143.805 410.941 144.16C410.677 144.516 410.545 144.898 410.545 145.309H408.016C408.016 144.78 408.152 144.256 408.426 143.736C408.699 143.217 409.091 142.747 409.602 142.328C410.121 141.9 410.741 141.562 411.461 141.316C412.19 141.061 413.001 140.934 413.895 140.934C414.97 140.934 415.918 141.116 416.738 141.48C417.568 141.845 418.215 142.396 418.68 143.135C419.154 143.864 419.391 144.78 419.391 145.883V152.773C419.391 153.266 419.432 153.79 419.514 154.346C419.605 154.902 419.737 155.38 419.91 155.781V156H417.271C417.144 155.708 417.044 155.321 416.971 154.838C416.898 154.346 416.861 153.89 416.861 153.471ZM417.299 147.031L417.326 148.809H414.77C414.049 148.809 413.407 148.868 412.842 148.986C412.277 149.096 411.803 149.264 411.42 149.492C411.037 149.72 410.745 150.007 410.545 150.354C410.344 150.691 410.244 151.087 410.244 151.543C410.244 152.008 410.349 152.432 410.559 152.814C410.768 153.197 411.083 153.503 411.502 153.73C411.93 153.949 412.454 154.059 413.074 154.059C413.849 154.059 414.533 153.895 415.125 153.566C415.717 153.238 416.187 152.837 416.533 152.363C416.889 151.889 417.08 151.429 417.107 150.982L418.188 152.199C418.124 152.582 417.951 153.006 417.668 153.471C417.385 153.936 417.007 154.382 416.533 154.811C416.068 155.23 415.512 155.581 414.865 155.863C414.227 156.137 413.507 156.273 412.705 156.273C411.702 156.273 410.823 156.077 410.066 155.686C409.319 155.294 408.736 154.77 408.316 154.113C407.906 153.448 407.701 152.705 407.701 151.885C407.701 151.092 407.856 150.395 408.166 149.793C408.476 149.182 408.923 148.676 409.506 148.275C410.089 147.865 410.791 147.555 411.611 147.346C412.432 147.136 413.348 147.031 414.359 147.031H417.299ZM429.562 141.207V143.148H421.564V141.207H429.562ZM424.271 137.611H426.801V152.336C426.801 152.837 426.878 153.215 427.033 153.471C427.188 153.726 427.389 153.895 427.635 153.977C427.881 154.059 428.145 154.1 428.428 154.1C428.637 154.1 428.856 154.081 429.084 154.045C429.321 153.999 429.499 153.963 429.617 153.936L429.631 156C429.43 156.064 429.166 156.123 428.838 156.178C428.519 156.242 428.132 156.273 427.676 156.273C427.056 156.273 426.486 156.15 425.967 155.904C425.447 155.658 425.033 155.248 424.723 154.674C424.422 154.09 424.271 153.307 424.271 152.322V137.611ZM435.277 141.207V156H432.734V141.207H435.277ZM432.543 137.283C432.543 136.873 432.666 136.527 432.912 136.244C433.167 135.962 433.541 135.82 434.033 135.82C434.516 135.82 434.885 135.962 435.141 136.244C435.405 136.527 435.537 136.873 435.537 137.283C435.537 137.675 435.405 138.012 435.141 138.295C434.885 138.568 434.516 138.705 434.033 138.705C433.541 138.705 433.167 138.568 432.912 138.295C432.666 138.012 432.543 137.675 432.543 137.283ZM438.668 148.768V148.453C438.668 147.387 438.823 146.398 439.133 145.486C439.443 144.566 439.889 143.768 440.473 143.094C441.056 142.41 441.762 141.882 442.592 141.508C443.421 141.125 444.351 140.934 445.381 140.934C446.42 140.934 447.354 141.125 448.184 141.508C449.022 141.882 449.733 142.41 450.316 143.094C450.909 143.768 451.36 144.566 451.67 145.486C451.98 146.398 452.135 147.387 452.135 148.453V148.768C452.135 149.834 451.98 150.823 451.67 151.734C451.36 152.646 450.909 153.443 450.316 154.127C449.733 154.801 449.027 155.33 448.197 155.713C447.377 156.087 446.447 156.273 445.408 156.273C444.369 156.273 443.435 156.087 442.605 155.713C441.776 155.33 441.065 154.801 440.473 154.127C439.889 153.443 439.443 152.646 439.133 151.734C438.823 150.823 438.668 149.834 438.668 148.768ZM441.197 148.453V148.768C441.197 149.506 441.284 150.203 441.457 150.859C441.63 151.507 441.89 152.081 442.236 152.582C442.592 153.083 443.034 153.48 443.562 153.771C444.091 154.054 444.706 154.195 445.408 154.195C446.101 154.195 446.707 154.054 447.227 153.771C447.755 153.48 448.193 153.083 448.539 152.582C448.885 152.081 449.145 151.507 449.318 150.859C449.501 150.203 449.592 149.506 449.592 148.768V148.453C449.592 147.724 449.501 147.036 449.318 146.389C449.145 145.732 448.881 145.154 448.525 144.652C448.179 144.142 447.742 143.741 447.213 143.449C446.693 143.158 446.083 143.012 445.381 143.012C444.688 143.012 444.077 143.158 443.549 143.449C443.029 143.741 442.592 144.142 442.236 144.652C441.89 145.154 441.63 145.732 441.457 146.389C441.284 147.036 441.197 147.724 441.197 148.453ZM457.836 144.365V156H455.307V141.207H457.699L457.836 144.365ZM457.234 148.043L456.182 148.002C456.191 146.99 456.341 146.056 456.633 145.199C456.924 144.333 457.335 143.581 457.863 142.943C458.392 142.305 459.021 141.813 459.75 141.467C460.488 141.111 461.304 140.934 462.197 140.934C462.926 140.934 463.583 141.034 464.166 141.234C464.749 141.426 465.246 141.736 465.656 142.164C466.076 142.592 466.395 143.148 466.613 143.832C466.832 144.507 466.941 145.331 466.941 146.307V156H464.398V146.279C464.398 145.505 464.285 144.885 464.057 144.42C463.829 143.946 463.496 143.604 463.059 143.395C462.621 143.176 462.083 143.066 461.445 143.066C460.816 143.066 460.242 143.199 459.723 143.463C459.212 143.727 458.77 144.092 458.396 144.557C458.032 145.021 457.745 145.555 457.535 146.156C457.335 146.749 457.234 147.378 457.234 148.043ZM486.451 153.471V145.855C486.451 145.272 486.333 144.766 486.096 144.338C485.868 143.9 485.521 143.563 485.057 143.326C484.592 143.089 484.018 142.971 483.334 142.971C482.696 142.971 482.135 143.08 481.652 143.299C481.178 143.518 480.805 143.805 480.531 144.16C480.267 144.516 480.135 144.898 480.135 145.309H477.605C477.605 144.78 477.742 144.256 478.016 143.736C478.289 143.217 478.681 142.747 479.191 142.328C479.711 141.9 480.331 141.562 481.051 141.316C481.78 141.061 482.591 140.934 483.484 140.934C484.56 140.934 485.508 141.116 486.328 141.48C487.158 141.845 487.805 142.396 488.27 143.135C488.743 143.864 488.98 144.78 488.98 145.883V152.773C488.98 153.266 489.021 153.79 489.104 154.346C489.195 154.902 489.327 155.38 489.5 155.781V156H486.861C486.734 155.708 486.633 155.321 486.561 154.838C486.488 154.346 486.451 153.89 486.451 153.471ZM486.889 147.031L486.916 148.809H484.359C483.639 148.809 482.997 148.868 482.432 148.986C481.867 149.096 481.393 149.264 481.01 149.492C480.627 149.72 480.335 150.007 480.135 150.354C479.934 150.691 479.834 151.087 479.834 151.543C479.834 152.008 479.939 152.432 480.148 152.814C480.358 153.197 480.673 153.503 481.092 153.73C481.52 153.949 482.044 154.059 482.664 154.059C483.439 154.059 484.122 153.895 484.715 153.566C485.307 153.238 485.777 152.837 486.123 152.363C486.479 151.889 486.67 151.429 486.697 150.982L487.777 152.199C487.714 152.582 487.54 153.006 487.258 153.471C486.975 153.936 486.597 154.382 486.123 154.811C485.658 155.23 485.102 155.581 484.455 155.863C483.817 156.137 483.097 156.273 482.295 156.273C481.292 156.273 480.413 156.077 479.656 155.686C478.909 155.294 478.326 154.77 477.906 154.113C477.496 153.448 477.291 152.705 477.291 151.885C477.291 151.092 477.446 150.395 477.756 149.793C478.066 149.182 478.512 148.676 479.096 148.275C479.679 147.865 480.381 147.555 481.201 147.346C482.021 147.136 482.938 147.031 483.949 147.031H486.889ZM499.152 141.207V143.148H491.154V141.207H499.152ZM493.861 137.611H496.391V152.336C496.391 152.837 496.468 153.215 496.623 153.471C496.778 153.726 496.979 153.895 497.225 153.977C497.471 154.059 497.735 154.1 498.018 154.1C498.227 154.1 498.446 154.081 498.674 154.045C498.911 153.999 499.089 153.963 499.207 153.936L499.221 156C499.02 156.064 498.756 156.123 498.428 156.178C498.109 156.242 497.721 156.273 497.266 156.273C496.646 156.273 496.076 156.15 495.557 155.904C495.037 155.658 494.622 155.248 494.312 154.674C494.012 154.09 493.861 153.307 493.861 152.322V137.611ZM501.176 148.768V148.453C501.176 147.387 501.331 146.398 501.641 145.486C501.951 144.566 502.397 143.768 502.98 143.094C503.564 142.41 504.27 141.882 505.1 141.508C505.929 141.125 506.859 140.934 507.889 140.934C508.928 140.934 509.862 141.125 510.691 141.508C511.53 141.882 512.241 142.41 512.824 143.094C513.417 143.768 513.868 144.566 514.178 145.486C514.488 146.398 514.643 147.387 514.643 148.453V148.768C514.643 149.834 514.488 150.823 514.178 151.734C513.868 152.646 513.417 153.443 512.824 154.127C512.241 154.801 511.535 155.33 510.705 155.713C509.885 156.087 508.955 156.273 507.916 156.273C506.877 156.273 505.943 156.087 505.113 155.713C504.284 155.33 503.573 154.801 502.98 154.127C502.397 153.443 501.951 152.646 501.641 151.734C501.331 150.823 501.176 149.834 501.176 148.768ZM503.705 148.453V148.768C503.705 149.506 503.792 150.203 503.965 150.859C504.138 151.507 504.398 152.081 504.744 152.582C505.1 153.083 505.542 153.48 506.07 153.771C506.599 154.054 507.214 154.195 507.916 154.195C508.609 154.195 509.215 154.054 509.734 153.771C510.263 153.48 510.701 153.083 511.047 152.582C511.393 152.081 511.653 151.507 511.826 150.859C512.008 150.203 512.1 149.506 512.1 148.768V148.453C512.1 147.724 512.008 147.036 511.826 146.389C511.653 145.732 511.389 145.154 511.033 144.652C510.687 144.142 510.249 143.741 509.721 143.449C509.201 143.158 508.59 143.012 507.889 143.012C507.196 143.012 506.585 143.158 506.057 143.449C505.537 143.741 505.1 144.142 504.744 144.652C504.398 145.154 504.138 145.732 503.965 146.389C503.792 147.036 503.705 147.724 503.705 148.453ZM520.33 144.146V156H517.787V141.207H520.193L520.33 144.146ZM519.811 148.043L518.635 148.002C518.644 146.99 518.776 146.056 519.031 145.199C519.286 144.333 519.665 143.581 520.166 142.943C520.667 142.305 521.292 141.813 522.039 141.467C522.786 141.111 523.652 140.934 524.637 140.934C525.329 140.934 525.967 141.034 526.551 141.234C527.134 141.426 527.64 141.731 528.068 142.15C528.497 142.57 528.829 143.107 529.066 143.764C529.303 144.42 529.422 145.213 529.422 146.143V156H526.893V146.266C526.893 145.491 526.76 144.871 526.496 144.406C526.241 143.941 525.876 143.604 525.402 143.395C524.928 143.176 524.372 143.066 523.734 143.066C522.987 143.066 522.363 143.199 521.861 143.463C521.36 143.727 520.959 144.092 520.658 144.557C520.357 145.021 520.139 145.555 520.002 146.156C519.874 146.749 519.811 147.378 519.811 148.043ZM529.395 146.648L527.699 147.168C527.708 146.357 527.84 145.577 528.096 144.83C528.36 144.083 528.738 143.417 529.23 142.834C529.732 142.251 530.347 141.79 531.076 141.453C531.805 141.107 532.639 140.934 533.578 140.934C534.371 140.934 535.073 141.038 535.684 141.248C536.303 141.458 536.823 141.781 537.242 142.219C537.671 142.647 537.994 143.199 538.213 143.873C538.432 144.548 538.541 145.35 538.541 146.279V156H535.998V146.252C535.998 145.423 535.866 144.78 535.602 144.324C535.346 143.859 534.982 143.536 534.508 143.354C534.043 143.162 533.487 143.066 532.84 143.066C532.284 143.066 531.792 143.162 531.363 143.354C530.935 143.545 530.575 143.809 530.283 144.146C529.992 144.475 529.768 144.853 529.613 145.281C529.467 145.71 529.395 146.165 529.395 146.648ZM545.117 141.207V156H542.574V141.207H545.117ZM542.383 137.283C542.383 136.873 542.506 136.527 542.752 136.244C543.007 135.962 543.381 135.82 543.873 135.82C544.356 135.82 544.725 135.962 544.98 136.244C545.245 136.527 545.377 136.873 545.377 137.283C545.377 137.675 545.245 138.012 544.98 138.295C544.725 138.568 544.356 138.705 543.873 138.705C543.381 138.705 543.007 138.568 542.752 138.295C542.506 138.012 542.383 137.675 542.383 137.283ZM555.098 154.195C555.699 154.195 556.255 154.072 556.766 153.826C557.276 153.58 557.695 153.243 558.023 152.814C558.352 152.377 558.538 151.88 558.584 151.324H560.99C560.945 152.199 560.648 153.015 560.102 153.771C559.564 154.519 558.857 155.125 557.982 155.59C557.107 156.046 556.146 156.273 555.098 156.273C553.986 156.273 553.015 156.077 552.186 155.686C551.365 155.294 550.682 154.756 550.135 154.072C549.597 153.389 549.191 152.605 548.918 151.721C548.654 150.827 548.521 149.884 548.521 148.891V148.316C548.521 147.323 548.654 146.384 548.918 145.5C549.191 144.607 549.597 143.818 550.135 143.135C550.682 142.451 551.365 141.913 552.186 141.521C553.015 141.13 553.986 140.934 555.098 140.934C556.255 140.934 557.267 141.171 558.133 141.645C558.999 142.109 559.678 142.747 560.17 143.559C560.671 144.361 560.945 145.272 560.99 146.293H558.584C558.538 145.682 558.365 145.131 558.064 144.639C557.773 144.146 557.372 143.755 556.861 143.463C556.36 143.162 555.772 143.012 555.098 143.012C554.323 143.012 553.671 143.167 553.143 143.477C552.623 143.777 552.208 144.188 551.898 144.707C551.598 145.217 551.379 145.787 551.242 146.416C551.115 147.036 551.051 147.669 551.051 148.316V148.891C551.051 149.538 551.115 150.176 551.242 150.805C551.37 151.434 551.584 152.003 551.885 152.514C552.195 153.024 552.609 153.434 553.129 153.744C553.658 154.045 554.314 154.195 555.098 154.195ZM574.525 153.375L578.326 141.207H579.994L579.666 143.627L575.797 156H574.17L574.525 153.375ZM571.969 141.207L575.209 153.512L575.441 156H573.732L569.439 141.207H571.969ZM583.631 153.416L586.721 141.207H589.236L584.943 156H583.248L583.631 153.416ZM580.363 141.207L584.082 153.17L584.506 156H582.893L578.914 143.6L578.586 141.207H580.363ZM594.582 141.207V156H592.039V141.207H594.582ZM591.848 137.283C591.848 136.873 591.971 136.527 592.217 136.244C592.472 135.962 592.846 135.82 593.338 135.82C593.821 135.82 594.19 135.962 594.445 136.244C594.71 136.527 594.842 136.873 594.842 137.283C594.842 137.675 594.71 138.012 594.445 138.295C594.19 138.568 593.821 138.705 593.338 138.705C592.846 138.705 592.472 138.568 592.217 138.295C591.971 138.012 591.848 137.675 591.848 137.283ZM604.836 141.207V143.148H596.838V141.207H604.836ZM599.545 137.611H602.074V152.336C602.074 152.837 602.152 153.215 602.307 153.471C602.462 153.726 602.662 153.895 602.908 153.977C603.154 154.059 603.419 154.1 603.701 154.1C603.911 154.1 604.13 154.081 604.357 154.045C604.594 153.999 604.772 153.963 604.891 153.936L604.904 156C604.704 156.064 604.439 156.123 604.111 156.178C603.792 156.242 603.405 156.273 602.949 156.273C602.329 156.273 601.76 156.15 601.24 155.904C600.721 155.658 600.306 155.248 599.996 154.674C599.695 154.09 599.545 153.307 599.545 152.322V137.611ZM610.332 135V156H607.803V135H610.332ZM609.73 148.043L608.678 148.002C608.687 146.99 608.837 146.056 609.129 145.199C609.421 144.333 609.831 143.581 610.359 142.943C610.888 142.305 611.517 141.813 612.246 141.467C612.984 141.111 613.8 140.934 614.693 140.934C615.423 140.934 616.079 141.034 616.662 141.234C617.245 141.426 617.742 141.736 618.152 142.164C618.572 142.592 618.891 143.148 619.109 143.832C619.328 144.507 619.438 145.331 619.438 146.307V156H616.895V146.279C616.895 145.505 616.781 144.885 616.553 144.42C616.325 143.946 615.992 143.604 615.555 143.395C615.117 143.176 614.579 143.066 613.941 143.066C613.312 143.066 612.738 143.199 612.219 143.463C611.708 143.727 611.266 144.092 610.893 144.557C610.528 145.021 610.241 145.555 610.031 146.156C609.831 146.749 609.73 147.378 609.73 148.043ZM634.326 154.469L638.441 141.207H641.148L635.215 158.283C635.078 158.648 634.896 159.04 634.668 159.459C634.449 159.887 634.167 160.293 633.82 160.676C633.474 161.059 633.055 161.368 632.562 161.605C632.079 161.852 631.501 161.975 630.826 161.975C630.626 161.975 630.37 161.947 630.061 161.893C629.751 161.838 629.532 161.792 629.404 161.756L629.391 159.705C629.464 159.714 629.577 159.723 629.732 159.732C629.896 159.751 630.01 159.76 630.074 159.76C630.648 159.76 631.136 159.682 631.537 159.527C631.938 159.382 632.275 159.131 632.549 158.775C632.831 158.429 633.073 157.951 633.273 157.34L634.326 154.469ZM631.305 141.207L635.146 152.691L635.803 155.357L633.984 156.287L628.543 141.207H631.305ZM642.543 148.768V148.453C642.543 147.387 642.698 146.398 643.008 145.486C643.318 144.566 643.764 143.768 644.348 143.094C644.931 142.41 645.637 141.882 646.467 141.508C647.296 141.125 648.226 140.934 649.256 140.934C650.295 140.934 651.229 141.125 652.059 141.508C652.897 141.882 653.608 142.41 654.191 143.094C654.784 143.768 655.235 144.566 655.545 145.486C655.855 146.398 656.01 147.387 656.01 148.453V148.768C656.01 149.834 655.855 150.823 655.545 151.734C655.235 152.646 654.784 153.443 654.191 154.127C653.608 154.801 652.902 155.33 652.072 155.713C651.252 156.087 650.322 156.273 649.283 156.273C648.244 156.273 647.31 156.087 646.48 155.713C645.651 155.33 644.94 154.801 644.348 154.127C643.764 153.443 643.318 152.646 643.008 151.734C642.698 150.823 642.543 149.834 642.543 148.768ZM645.072 148.453V148.768C645.072 149.506 645.159 150.203 645.332 150.859C645.505 151.507 645.765 152.081 646.111 152.582C646.467 153.083 646.909 153.48 647.438 153.771C647.966 154.054 648.581 154.195 649.283 154.195C649.976 154.195 650.582 154.054 651.102 153.771C651.63 153.48 652.068 153.083 652.414 152.582C652.76 152.081 653.02 151.507 653.193 150.859C653.376 150.203 653.467 149.506 653.467 148.768V148.453C653.467 147.724 653.376 147.036 653.193 146.389C653.02 145.732 652.756 145.154 652.4 144.652C652.054 144.142 651.617 143.741 651.088 143.449C650.568 143.158 649.958 143.012 649.256 143.012C648.563 143.012 647.952 143.158 647.424 143.449C646.904 143.741 646.467 144.142 646.111 144.652C645.765 145.154 645.505 145.732 645.332 146.389C645.159 147.036 645.072 147.724 645.072 148.453ZM668.232 152.582V141.207H670.775V156H668.355L668.232 152.582ZM668.711 149.465L669.764 149.438C669.764 150.422 669.659 151.333 669.449 152.172C669.249 153.001 668.921 153.721 668.465 154.332C668.009 154.943 667.412 155.421 666.674 155.768C665.936 156.105 665.038 156.273 663.98 156.273C663.26 156.273 662.6 156.169 661.998 155.959C661.406 155.749 660.895 155.426 660.467 154.988C660.038 154.551 659.706 153.981 659.469 153.279C659.241 152.577 659.127 151.734 659.127 150.75V141.207H661.656V150.777C661.656 151.443 661.729 151.994 661.875 152.432C662.03 152.86 662.235 153.202 662.49 153.457C662.755 153.703 663.046 153.876 663.365 153.977C663.693 154.077 664.031 154.127 664.377 154.127C665.452 154.127 666.305 153.922 666.934 153.512C667.562 153.092 668.014 152.532 668.287 151.83C668.57 151.119 668.711 150.331 668.711 149.465ZM690.9 153.129V135H693.443V156H691.119L690.9 153.129ZM680.947 148.768V148.48C680.947 147.35 681.084 146.325 681.357 145.404C681.64 144.475 682.036 143.677 682.547 143.012C683.066 142.346 683.682 141.836 684.393 141.48C685.113 141.116 685.915 140.934 686.799 140.934C687.729 140.934 688.54 141.098 689.232 141.426C689.934 141.745 690.527 142.214 691.01 142.834C691.502 143.445 691.889 144.183 692.172 145.049C692.454 145.915 692.65 146.895 692.76 147.988V149.246C692.66 150.331 692.464 151.306 692.172 152.172C691.889 153.038 691.502 153.776 691.01 154.387C690.527 154.997 689.934 155.467 689.232 155.795C688.531 156.114 687.71 156.273 686.771 156.273C685.906 156.273 685.113 156.087 684.393 155.713C683.682 155.339 683.066 154.815 682.547 154.141C682.036 153.466 681.64 152.673 681.357 151.762C681.084 150.841 680.947 149.843 680.947 148.768ZM683.49 148.48V148.768C683.49 149.506 683.563 150.199 683.709 150.846C683.864 151.493 684.101 152.062 684.42 152.555C684.739 153.047 685.145 153.434 685.637 153.717C686.129 153.99 686.717 154.127 687.4 154.127C688.239 154.127 688.927 153.949 689.465 153.594C690.012 153.238 690.449 152.769 690.777 152.186C691.105 151.602 691.361 150.969 691.543 150.285V146.99C691.434 146.489 691.274 146.006 691.064 145.541C690.864 145.067 690.6 144.648 690.271 144.283C689.952 143.91 689.556 143.613 689.082 143.395C688.617 143.176 688.066 143.066 687.428 143.066C686.735 143.066 686.138 143.212 685.637 143.504C685.145 143.786 684.739 144.178 684.42 144.68C684.101 145.172 683.864 145.746 683.709 146.402C683.563 147.049 683.49 147.742 683.49 148.48ZM703.52 156.273C702.49 156.273 701.555 156.1 700.717 155.754C699.887 155.398 699.172 154.902 698.57 154.264C697.978 153.626 697.522 152.869 697.203 151.994C696.884 151.119 696.725 150.162 696.725 149.123V148.549C696.725 147.346 696.902 146.275 697.258 145.336C697.613 144.388 698.096 143.586 698.707 142.93C699.318 142.273 700.01 141.777 700.785 141.439C701.56 141.102 702.362 140.934 703.191 140.934C704.249 140.934 705.16 141.116 705.926 141.48C706.701 141.845 707.334 142.355 707.826 143.012C708.318 143.659 708.683 144.424 708.92 145.309C709.157 146.184 709.275 147.141 709.275 148.18V149.314H698.229V147.25H706.746V147.059C706.71 146.402 706.573 145.764 706.336 145.145C706.108 144.525 705.743 144.014 705.242 143.613C704.741 143.212 704.057 143.012 703.191 143.012C702.617 143.012 702.089 143.135 701.605 143.381C701.122 143.618 700.708 143.973 700.361 144.447C700.015 144.921 699.746 145.5 699.555 146.184C699.363 146.867 699.268 147.656 699.268 148.549V149.123C699.268 149.825 699.363 150.486 699.555 151.105C699.755 151.716 700.042 152.254 700.416 152.719C700.799 153.184 701.259 153.548 701.797 153.812C702.344 154.077 702.964 154.209 703.656 154.209C704.549 154.209 705.306 154.027 705.926 153.662C706.546 153.298 707.088 152.81 707.553 152.199L709.084 153.416C708.765 153.899 708.359 154.359 707.867 154.797C707.375 155.234 706.769 155.59 706.049 155.863C705.338 156.137 704.495 156.273 703.52 156.273ZM720.842 152.076C720.842 151.712 720.76 151.374 720.596 151.064C720.441 150.745 720.117 150.458 719.625 150.203C719.142 149.939 718.413 149.711 717.438 149.52C716.617 149.346 715.874 149.141 715.209 148.904C714.553 148.667 713.992 148.38 713.527 148.043C713.072 147.706 712.721 147.309 712.475 146.854C712.229 146.398 712.105 145.865 712.105 145.254C712.105 144.671 712.233 144.119 712.488 143.6C712.753 143.08 713.122 142.62 713.596 142.219C714.079 141.818 714.658 141.503 715.332 141.275C716.007 141.048 716.758 140.934 717.588 140.934C718.773 140.934 719.785 141.143 720.623 141.562C721.462 141.982 722.104 142.542 722.551 143.244C722.997 143.937 723.221 144.707 723.221 145.555H720.691C720.691 145.145 720.568 144.748 720.322 144.365C720.085 143.973 719.734 143.65 719.27 143.395C718.814 143.139 718.253 143.012 717.588 143.012C716.886 143.012 716.316 143.121 715.879 143.34C715.451 143.549 715.136 143.818 714.936 144.146C714.744 144.475 714.648 144.821 714.648 145.186C714.648 145.459 714.694 145.705 714.785 145.924C714.885 146.133 715.059 146.329 715.305 146.512C715.551 146.685 715.897 146.849 716.344 147.004C716.79 147.159 717.36 147.314 718.053 147.469C719.265 147.742 720.263 148.07 721.047 148.453C721.831 148.836 722.414 149.305 722.797 149.861C723.18 150.417 723.371 151.092 723.371 151.885C723.371 152.532 723.234 153.124 722.961 153.662C722.697 154.2 722.309 154.665 721.799 155.057C721.298 155.439 720.696 155.74 719.994 155.959C719.301 156.169 718.522 156.273 717.656 156.273C716.353 156.273 715.25 156.041 714.348 155.576C713.445 155.111 712.762 154.51 712.297 153.771C711.832 153.033 711.6 152.254 711.6 151.434H714.143C714.179 152.126 714.38 152.678 714.744 153.088C715.109 153.489 715.555 153.776 716.084 153.949C716.613 154.113 717.137 154.195 717.656 154.195C718.349 154.195 718.928 154.104 719.393 153.922C719.867 153.74 720.227 153.489 720.473 153.17C720.719 152.851 720.842 152.486 720.842 152.076ZM729.441 141.207V156H726.898V141.207H729.441ZM726.707 137.283C726.707 136.873 726.83 136.527 727.076 136.244C727.331 135.962 727.705 135.82 728.197 135.82C728.68 135.82 729.049 135.962 729.305 136.244C729.569 136.527 729.701 136.873 729.701 137.283C729.701 137.675 729.569 138.012 729.305 138.295C729.049 138.568 728.68 138.705 728.197 138.705C727.705 138.705 727.331 138.568 727.076 138.295C726.83 138.012 726.707 137.675 726.707 137.283ZM743.086 141.207H745.383V155.686C745.383 156.989 745.118 158.101 744.59 159.021C744.061 159.942 743.323 160.639 742.375 161.113C741.436 161.596 740.352 161.838 739.121 161.838C738.611 161.838 738.009 161.756 737.316 161.592C736.633 161.437 735.958 161.168 735.293 160.785C734.637 160.411 734.085 159.906 733.639 159.268L734.965 157.764C735.585 158.511 736.232 159.031 736.906 159.322C737.59 159.614 738.264 159.76 738.93 159.76C739.732 159.76 740.424 159.609 741.008 159.309C741.591 159.008 742.042 158.561 742.361 157.969C742.689 157.385 742.854 156.665 742.854 155.809V144.461L743.086 141.207ZM732.9 148.768V148.48C732.9 147.35 733.033 146.325 733.297 145.404C733.57 144.475 733.958 143.677 734.459 143.012C734.969 142.346 735.585 141.836 736.305 141.48C737.025 141.116 737.836 140.934 738.738 140.934C739.668 140.934 740.479 141.098 741.172 141.426C741.874 141.745 742.466 142.214 742.949 142.834C743.441 143.445 743.829 144.183 744.111 145.049C744.394 145.915 744.59 146.895 744.699 147.988V149.246C744.599 150.331 744.403 151.306 744.111 152.172C743.829 153.038 743.441 153.776 742.949 154.387C742.466 154.997 741.874 155.467 741.172 155.795C740.47 156.114 739.65 156.273 738.711 156.273C737.827 156.273 737.025 156.087 736.305 155.713C735.594 155.339 734.983 154.815 734.473 154.141C733.962 153.466 733.57 152.673 733.297 151.762C733.033 150.841 732.9 149.843 732.9 148.768ZM735.43 148.48V148.768C735.43 149.506 735.503 150.199 735.648 150.846C735.803 151.493 736.036 152.062 736.346 152.555C736.665 153.047 737.07 153.434 737.562 153.717C738.055 153.99 738.643 154.127 739.326 154.127C740.165 154.127 740.857 153.949 741.404 153.594C741.951 153.238 742.384 152.769 742.703 152.186C743.031 151.602 743.286 150.969 743.469 150.285V146.99C743.368 146.489 743.214 146.006 743.004 145.541C742.803 145.067 742.539 144.648 742.211 144.283C741.892 143.91 741.495 143.613 741.021 143.395C740.548 143.176 739.992 143.066 739.354 143.066C738.661 143.066 738.064 143.212 737.562 143.504C737.07 143.786 736.665 144.178 736.346 144.68C736.036 145.172 735.803 145.746 735.648 146.402C735.503 147.049 735.43 147.742 735.43 148.48ZM751.754 144.365V156H749.225V141.207H751.617L751.754 144.365ZM751.152 148.043L750.1 148.002C750.109 146.99 750.259 146.056 750.551 145.199C750.842 144.333 751.253 143.581 751.781 142.943C752.31 142.305 752.939 141.813 753.668 141.467C754.406 141.111 755.222 140.934 756.115 140.934C756.844 140.934 757.501 141.034 758.084 141.234C758.667 141.426 759.164 141.736 759.574 142.164C759.993 142.592 760.312 143.148 760.531 143.832C760.75 144.507 760.859 145.331 760.859 146.307V156H758.316V146.279C758.316 145.505 758.202 144.885 757.975 144.42C757.747 143.946 757.414 143.604 756.977 143.395C756.539 143.176 756.001 143.066 755.363 143.066C754.734 143.066 754.16 143.199 753.641 143.463C753.13 143.727 752.688 144.092 752.314 144.557C751.95 145.021 751.663 145.555 751.453 146.156C751.253 146.749 751.152 147.378 751.152 148.043Z" fill="#171717"/>
<path d="M373.164 51.6094H387.903C390.839 51.6094 393.379 52.0488 395.523 52.9277C397.686 53.8066 399.347 55.1074 400.507 56.8301C401.667 58.5527 402.247 60.6797 402.247 63.2109C402.247 65.3203 401.904 67.1133 401.219 68.5898C400.533 70.0664 399.566 71.2881 398.318 72.2549C397.088 73.2217 395.646 74.0039 393.994 74.6016L391.199 76.1309H378.648L378.596 69.46H387.93C389.213 69.46 390.276 69.2314 391.12 68.7744C391.964 68.3174 392.597 67.6758 393.019 66.8496C393.458 66.0059 393.678 65.0215 393.678 63.8965C393.678 62.7363 393.458 61.7344 393.019 60.8906C392.579 60.0469 391.929 59.4053 391.067 58.9658C390.224 58.5088 389.169 58.2803 387.903 58.2803H381.76V90H373.164V51.6094ZM394.416 90L385.794 72.9404L394.864 72.9141L403.618 89.6045V90H394.416ZM421.1 90.5273C418.832 90.5273 416.802 90.167 415.009 89.4463C413.216 88.7256 411.695 87.7324 410.447 86.4668C409.217 85.1836 408.276 83.707 407.626 82.0371C406.976 80.3672 406.65 78.583 406.65 76.6846V75.6826C406.65 73.5557 406.949 71.5957 407.547 69.8027C408.145 68.0098 409.015 66.4541 410.157 65.1357C411.317 63.7998 412.741 62.7715 414.429 62.0508C416.116 61.3125 418.041 60.9434 420.203 60.9434C422.225 60.9434 424.026 61.2773 425.608 61.9453C427.19 62.5957 428.526 63.5361 429.616 64.7666C430.706 65.9795 431.532 67.4473 432.095 69.1699C432.675 70.875 432.965 72.791 432.965 74.918V78.293H409.973V72.9932H424.896V72.3604C424.896 71.3584 424.712 70.4795 424.343 69.7236C423.991 68.9678 423.464 68.3877 422.761 67.9834C422.075 67.5615 421.205 67.3506 420.15 67.3506C419.148 67.3506 418.313 67.5615 417.646 67.9834C416.978 68.4053 416.441 69.0029 416.037 69.7764C415.65 70.5322 415.369 71.4199 415.193 72.4395C415.018 73.4414 414.93 74.5225 414.93 75.6826V76.6846C414.93 77.792 415.079 78.8027 415.378 79.7168C415.677 80.6309 416.116 81.4131 416.696 82.0635C417.276 82.7139 417.979 83.2236 418.806 83.5928C419.632 83.9619 420.572 84.1465 421.627 84.1465C422.928 84.1465 424.167 83.9004 425.345 83.4082C426.522 82.8984 427.542 82.1074 428.403 81.0352L432.253 85.4385C431.673 86.2822 430.855 87.0996 429.801 87.8906C428.764 88.6641 427.516 89.2969 426.057 89.7891C424.598 90.2812 422.945 90.5273 421.1 90.5273ZM452.081 83.1973V70.9629C452.081 70.1016 451.949 69.3633 451.686 68.748C451.422 68.1328 451.009 67.6494 450.446 67.2979C449.884 66.9463 449.154 66.7705 448.258 66.7705C447.502 66.7705 446.843 66.9023 446.28 67.166C445.735 67.4297 445.313 67.8076 445.015 68.2998C444.733 68.792 444.593 69.3984 444.593 70.1191H436.366C436.366 68.8359 436.656 67.6406 437.236 66.5332C437.816 65.4258 438.643 64.4502 439.715 63.6064C440.805 62.7627 442.105 62.1123 443.617 61.6553C445.129 61.1807 446.825 60.9434 448.706 60.9434C450.938 60.9434 452.925 61.3213 454.665 62.0771C456.423 62.8154 457.812 63.9316 458.831 65.4258C459.851 66.9023 460.36 68.7656 460.36 71.0156V82.96C460.36 84.6826 460.457 86.0361 460.65 87.0205C460.861 87.9873 461.16 88.8311 461.547 89.5518V90H453.241C452.854 89.1738 452.564 88.1543 452.371 86.9414C452.178 85.7109 452.081 84.4629 452.081 83.1973ZM453.109 72.5977L453.162 77.1328H449.075C448.161 77.1328 447.37 77.2471 446.702 77.4756C446.052 77.7041 445.524 78.0205 445.12 78.4248C444.716 78.8115 444.417 79.2686 444.224 79.7959C444.048 80.3057 443.96 80.8682 443.96 81.4834C443.96 82.0635 444.101 82.5908 444.382 83.0654C444.663 83.5225 445.05 83.8828 445.542 84.1465C446.034 84.4102 446.605 84.542 447.256 84.542C448.328 84.542 449.242 84.3311 449.998 83.9092C450.771 83.4873 451.369 82.9775 451.791 82.3799C452.213 81.7646 452.424 81.1934 452.424 80.666L454.401 84.0938C454.085 84.7969 453.698 85.5264 453.241 86.2822C452.784 87.0205 452.204 87.7148 451.501 88.3652C450.798 88.998 449.945 89.5166 448.943 89.9209C447.959 90.3252 446.772 90.5273 445.384 90.5273C443.591 90.5273 441.965 90.167 440.506 89.4463C439.047 88.708 437.878 87.6973 436.999 86.4141C436.138 85.1309 435.707 83.6543 435.707 81.9844C435.707 80.4902 435.979 79.1631 436.524 78.0029C437.069 76.8428 437.887 75.8584 438.977 75.0498C440.084 74.2412 441.473 73.6348 443.143 73.2305C444.812 72.8086 446.764 72.5977 448.996 72.5977H453.109ZM477.684 84.1201C478.562 84.1201 479.327 83.9531 479.978 83.6191C480.628 83.2852 481.129 82.8193 481.48 82.2217C481.85 81.6064 482.034 80.8682 482.034 80.0068H489.786C489.786 82.0811 489.25 83.9092 488.178 85.4912C487.123 87.0732 485.699 88.3125 483.906 89.209C482.113 90.0879 480.092 90.5273 477.842 90.5273C475.627 90.5273 473.693 90.167 472.041 89.4463C470.389 88.708 469.009 87.6797 467.901 86.3613C466.794 85.043 465.959 83.5137 465.396 81.7734C464.852 80.0156 464.579 78.1172 464.579 76.0781V75.3926C464.579 73.3711 464.852 71.4814 465.396 69.7236C465.959 67.9658 466.794 66.4277 467.901 65.1094C469.009 63.791 470.38 62.7715 472.015 62.0508C473.667 61.3125 475.601 60.9434 477.815 60.9434C480.153 60.9434 482.219 61.3916 484.012 62.2881C485.822 63.1846 487.237 64.4766 488.257 66.1641C489.276 67.834 489.786 69.8467 489.786 72.2021H482.034C482.034 71.2881 481.867 70.4707 481.533 69.75C481.217 69.0117 480.725 68.4316 480.057 68.0098C479.406 67.5703 478.598 67.3506 477.631 67.3506C476.629 67.3506 475.803 67.5703 475.152 68.0098C474.52 68.4316 474.036 69.0205 473.702 69.7764C473.368 70.5322 473.14 71.3936 473.017 72.3604C472.894 73.3096 472.832 74.3203 472.832 75.3926V76.0781C472.832 77.168 472.894 78.2051 473.017 79.1895C473.14 80.1562 473.368 81.0088 473.702 81.7471C474.054 82.4854 474.546 83.0654 475.179 83.4873C475.812 83.9092 476.646 84.1201 477.684 84.1201ZM508.375 61.4707V67.2451H491.447V61.4707H508.375ZM495.323 54.4043H503.576V81.0615C503.576 81.8525 503.673 82.459 503.866 82.8809C504.06 83.3027 504.376 83.6016 504.815 83.7773C505.255 83.9355 505.817 84.0146 506.503 84.0146C506.995 84.0146 507.417 83.9971 507.769 83.9619C508.12 83.9268 508.445 83.8828 508.744 83.8301V89.7891C508.041 90.0176 507.294 90.1934 506.503 90.3164C505.712 90.457 504.851 90.5273 503.919 90.5273C502.144 90.5273 500.605 90.2373 499.305 89.6572C498.021 89.0771 497.037 88.1631 496.352 86.915C495.666 85.6494 495.323 84.0059 495.323 81.9844V54.4043ZM542.151 58.9131L532.237 90H523.062L537.273 51.6094H543.074L542.151 58.9131ZM550.378 90L540.438 58.9131L539.409 51.6094H545.289L559.554 90H550.378ZM549.956 75.709V82.3535H529.943V75.709H549.956ZM576.35 61.4707V67.2451H559.422V61.4707H576.35ZM563.298 54.4043H571.551V81.0615C571.551 81.8525 571.647 82.459 571.841 82.8809C572.034 83.3027 572.351 83.6016 572.79 83.7773C573.229 83.9355 573.792 84.0146 574.478 84.0146C574.97 84.0146 575.392 83.9971 575.743 83.9619C576.095 83.9268 576.42 83.8828 576.719 83.8301V89.7891C576.016 90.0176 575.269 90.1934 574.478 90.3164C573.687 90.457 572.825 90.5273 571.894 90.5273C570.118 90.5273 568.58 90.2373 567.279 89.6572C565.996 89.0771 565.012 88.1631 564.326 86.915C563.641 85.6494 563.298 84.0059 563.298 81.9844V54.4043ZM578.38 76.0254V75.4717C578.38 73.3799 578.679 71.4551 579.276 69.6973C579.874 67.9219 580.753 66.3838 581.913 65.083C583.073 63.7822 584.497 62.7715 586.185 62.0508C587.872 61.3125 589.806 60.9434 591.985 60.9434C594.2 60.9434 596.151 61.3125 597.839 62.0508C599.544 62.7715 600.977 63.7822 602.137 65.083C603.297 66.3838 604.176 67.9219 604.773 69.6973C605.371 71.4551 605.67 73.3799 605.67 75.4717V76.0254C605.67 78.0996 605.371 80.0244 604.773 81.7998C604.176 83.5576 603.297 85.0957 602.137 86.4141C600.977 87.7148 599.553 88.7256 597.865 89.4463C596.178 90.167 594.235 90.5273 592.038 90.5273C589.858 90.5273 587.916 90.167 586.211 89.4463C584.506 88.7256 583.073 87.7148 581.913 86.4141C580.753 85.0957 579.874 83.5576 579.276 81.7998C578.679 80.0244 578.38 78.0996 578.38 76.0254ZM586.633 75.4717V76.0254C586.633 77.1504 586.721 78.2051 586.896 79.1895C587.09 80.1738 587.397 81.0352 587.819 81.7734C588.241 82.5117 588.795 83.0918 589.48 83.5137C590.184 83.918 591.036 84.1201 592.038 84.1201C593.04 84.1201 593.884 83.918 594.569 83.5137C595.255 83.0918 595.809 82.5117 596.23 81.7734C596.652 81.0352 596.951 80.1738 597.127 79.1895C597.32 78.2051 597.417 77.1504 597.417 76.0254V75.4717C597.417 74.3643 597.32 73.3271 597.127 72.3604C596.951 71.376 596.652 70.5059 596.23 69.75C595.809 68.9941 595.246 68.4053 594.543 67.9834C593.857 67.5615 593.005 67.3506 591.985 67.3506C591.001 67.3506 590.166 67.5615 589.48 67.9834C588.795 68.4053 588.241 68.9941 587.819 69.75C587.397 70.5059 587.09 71.376 586.896 72.3604C586.721 73.3271 586.633 74.3643 586.633 75.4717ZM618.247 67.4561V90H610.021V61.4707H617.746L618.247 67.4561ZM617.192 74.7334L615.109 74.7861C615.109 72.7822 615.347 70.9453 615.821 69.2754C616.313 67.5879 617.025 66.1201 617.957 64.8721C618.889 63.624 620.04 62.6572 621.411 61.9717C622.8 61.2861 624.399 60.9434 626.21 60.9434C627.476 60.9434 628.627 61.1367 629.664 61.5234C630.701 61.8926 631.589 62.4814 632.327 63.29C633.083 64.0811 633.663 65.1182 634.067 66.4014C634.472 67.667 634.674 69.1875 634.674 70.9629V90H626.447V71.9648C626.447 70.6992 626.289 69.7412 625.973 69.0908C625.674 68.4229 625.234 67.9658 624.654 67.7197C624.074 67.4736 623.38 67.3506 622.571 67.3506C621.692 67.3506 620.91 67.5439 620.225 67.9307C619.557 68.2998 618.994 68.8184 618.537 69.4863C618.08 70.1543 617.737 70.9365 617.509 71.833C617.298 72.7295 617.192 73.6963 617.192 74.7334ZM633.83 74.3115L631.22 74.5225C631.22 72.5889 631.448 70.7959 631.905 69.1436C632.362 67.4912 633.048 66.0586 633.962 64.8457C634.876 63.6152 636.01 62.6572 637.363 61.9717C638.734 61.2861 640.325 60.9434 642.136 60.9434C643.472 60.9434 644.685 61.1367 645.774 61.5234C646.882 61.9102 647.831 62.5342 648.622 63.3955C649.431 64.2568 650.055 65.3906 650.494 66.7969C650.934 68.1855 651.153 69.8906 651.153 71.9121V90H642.874V71.9121C642.874 70.6641 642.716 69.7148 642.399 69.0645C642.101 68.4141 641.661 67.9658 641.081 67.7197C640.519 67.4736 639.842 67.3506 639.051 67.3506C638.172 67.3506 637.407 67.5352 636.757 67.9043C636.106 68.2559 635.562 68.748 635.122 69.3809C634.683 69.9961 634.357 70.7256 634.146 71.5693C633.936 72.4131 633.83 73.3271 633.83 74.3115Z" fill="#4CB074"/>
</svg>
